<svg width="183" height="173" viewBox="0 0 183 173" fill="none" xmlns="http://www.w3.org/2000/svg">
<path d="M50.2148 138.34H53.7188C53.6484 139.488 53.332 140.508 52.7695 141.398C52.2148 142.289 51.4375 142.984 50.4375 143.484C49.4453 143.984 48.25 144.234 46.8516 144.234C45.7578 144.234 44.7773 144.047 43.9102 143.672C43.043 143.289 42.3008 142.742 41.6836 142.031C41.0742 141.32 40.6094 140.461 40.2891 139.453C39.9688 138.445 39.8086 137.316 39.8086 136.066V134.883C39.8086 133.633 39.9727 132.504 40.3008 131.496C40.6367 130.48 41.1133 129.617 41.7305 128.906C42.3555 128.195 43.1016 127.648 43.9688 127.266C44.8359 126.883 45.8047 126.691 46.875 126.691C48.2969 126.691 49.4961 126.949 50.4727 127.465C51.457 127.98 52.2188 128.691 52.7578 129.598C53.3047 130.504 53.6328 131.535 53.7422 132.691H50.2266C50.1875 132.004 50.0508 131.422 49.8164 130.945C49.582 130.461 49.2266 130.098 48.75 129.855C48.2812 129.605 47.6562 129.48 46.875 129.48C46.2891 129.48 45.7773 129.59 45.3398 129.809C44.9023 130.027 44.5352 130.359 44.2383 130.805C43.9414 131.25 43.7188 131.812 43.5703 132.492C43.4297 133.164 43.3594 133.953 43.3594 134.859V136.066C43.3594 136.949 43.4258 137.727 43.5586 138.398C43.6914 139.062 43.8945 139.625 44.168 140.086C44.4492 140.539 44.8086 140.883 45.2461 141.117C45.6914 141.344 46.2266 141.457 46.8516 141.457C47.5859 141.457 48.1914 141.34 48.668 141.105C49.1445 140.871 49.5078 140.523 49.7578 140.062C50.0156 139.602 50.168 139.027 50.2148 138.34ZM63.3164 140.965V131.32H66.6914V144H63.5156L63.3164 140.965ZM63.6914 138.363L64.6875 138.34C64.6875 139.184 64.5898 139.969 64.3945 140.695C64.1992 141.414 63.9062 142.039 63.5156 142.57C63.125 143.094 62.6328 143.504 62.0391 143.801C61.4453 144.09 60.7461 144.234 59.9414 144.234C59.3242 144.234 58.7539 144.148 58.2305 143.977C57.7148 143.797 57.2695 143.52 56.8945 143.145C56.5273 142.762 56.2383 142.273 56.0273 141.68C55.8242 141.078 55.7227 140.355 55.7227 139.512V131.32H59.0977V139.535C59.0977 139.91 59.1406 140.227 59.2266 140.484C59.3203 140.742 59.4492 140.953 59.6133 141.117C59.7773 141.281 59.9688 141.398 60.1875 141.469C60.4141 141.539 60.6641 141.574 60.9375 141.574C61.6328 141.574 62.1797 141.434 62.5781 141.152C62.9844 140.871 63.2695 140.488 63.4336 140.004C63.6055 139.512 63.6914 138.965 63.6914 138.363ZM76.125 140.496C76.125 140.254 76.0547 140.035 75.9141 139.84C75.7734 139.645 75.5117 139.465 75.1289 139.301C74.7539 139.129 74.2109 138.973 73.5 138.832C72.8594 138.691 72.2617 138.516 71.707 138.305C71.1602 138.086 70.6836 137.824 70.2773 137.52C69.8789 137.215 69.5664 136.855 69.3398 136.441C69.1133 136.02 69 135.539 69 135C69 134.469 69.1133 133.969 69.3398 133.5C69.5742 133.031 69.9062 132.617 70.3359 132.258C70.7734 131.891 71.3047 131.605 71.9297 131.402C72.5625 131.191 73.2734 131.086 74.0625 131.086C75.1641 131.086 76.1094 131.262 76.8984 131.613C77.6953 131.965 78.3047 132.449 78.7266 133.066C79.1562 133.676 79.3711 134.371 79.3711 135.152H75.9961C75.9961 134.824 75.9258 134.531 75.7852 134.273C75.6523 134.008 75.4414 133.801 75.1523 133.652C74.8711 133.496 74.5039 133.418 74.0508 133.418C73.6758 133.418 73.3516 133.484 73.0781 133.617C72.8047 133.742 72.5938 133.914 72.4453 134.133C72.3047 134.344 72.2344 134.578 72.2344 134.836C72.2344 135.031 72.2734 135.207 72.3516 135.363C72.4375 135.512 72.5742 135.648 72.7617 135.773C72.9492 135.898 73.1914 136.016 73.4883 136.125C73.793 136.227 74.168 136.32 74.6133 136.406C75.5273 136.594 76.3438 136.84 77.0625 137.145C77.7812 137.441 78.3516 137.848 78.7734 138.363C79.1953 138.871 79.4062 139.539 79.4062 140.367C79.4062 140.93 79.2812 141.445 79.0312 141.914C78.7812 142.383 78.4219 142.793 77.9531 143.145C77.4844 143.488 76.9219 143.758 76.2656 143.953C75.6172 144.141 74.8867 144.234 74.0742 144.234C72.8945 144.234 71.8945 144.023 71.0742 143.602C70.2617 143.18 69.6445 142.645 69.2227 141.996C68.8086 141.34 68.6016 140.668 68.6016 139.98H71.8008C71.8164 140.441 71.9336 140.812 72.1523 141.094C72.3789 141.375 72.6641 141.578 73.0078 141.703C73.3594 141.828 73.7383 141.891 74.1445 141.891C74.582 141.891 74.9453 141.832 75.2344 141.715C75.5234 141.59 75.7422 141.426 75.8906 141.223C76.0469 141.012 76.125 140.77 76.125 140.496ZM87.8086 131.32V133.711H80.4258V131.32H87.8086ZM82.2539 128.191H85.6289V140.18C85.6289 140.547 85.6758 140.828 85.7695 141.023C85.8711 141.219 86.0195 141.355 86.2148 141.434C86.4102 141.504 86.6562 141.539 86.9531 141.539C87.1641 141.539 87.3516 141.531 87.5156 141.516C87.6875 141.492 87.832 141.469 87.9492 141.445L87.9609 143.93C87.6719 144.023 87.3594 144.098 87.0234 144.152C86.6875 144.207 86.3164 144.234 85.9102 144.234C85.168 144.234 84.5195 144.113 83.9648 143.871C83.418 143.621 82.9961 143.223 82.6992 142.676C82.4023 142.129 82.2539 141.41 82.2539 140.52V128.191ZM88.8867 137.789V137.543C88.8867 136.613 89.0195 135.758 89.2852 134.977C89.5508 134.188 89.9375 133.504 90.4453 132.926C90.9531 132.348 91.5781 131.898 92.3203 131.578C93.0625 131.25 93.9141 131.086 94.875 131.086C95.8359 131.086 96.6914 131.25 97.4414 131.578C98.1914 131.898 98.8203 132.348 99.3281 132.926C99.8438 133.504 100.234 134.188 100.5 134.977C100.766 135.758 100.898 136.613 100.898 137.543V137.789C100.898 138.711 100.766 139.566 100.5 140.355C100.234 141.137 99.8438 141.82 99.3281 142.406C98.8203 142.984 98.1953 143.434 97.4531 143.754C96.7109 144.074 95.8594 144.234 94.8984 144.234C93.9375 144.234 93.082 144.074 92.332 143.754C91.5898 143.434 90.9609 142.984 90.4453 142.406C89.9375 141.82 89.5508 141.137 89.2852 140.355C89.0195 139.566 88.8867 138.711 88.8867 137.789ZM92.2617 137.543V137.789C92.2617 138.32 92.3086 138.816 92.4023 139.277C92.4961 139.738 92.6445 140.145 92.8477 140.496C93.0586 140.84 93.332 141.109 93.668 141.305C94.0039 141.5 94.4141 141.598 94.8984 141.598C95.3672 141.598 95.7695 141.5 96.1055 141.305C96.4414 141.109 96.7109 140.84 96.9141 140.496C97.1172 140.145 97.2656 139.738 97.3594 139.277C97.4609 138.816 97.5117 138.32 97.5117 137.789V137.543C97.5117 137.027 97.4609 136.543 97.3594 136.09C97.2656 135.629 97.1133 135.223 96.9023 134.871C96.6992 134.512 96.4297 134.23 96.0938 134.027C95.7578 133.824 95.3516 133.723 94.875 133.723C94.3984 133.723 93.9922 133.824 93.6562 134.027C93.3281 134.23 93.0586 134.512 92.8477 134.871C92.6445 135.223 92.4961 135.629 92.4023 136.09C92.3086 136.543 92.2617 137.027 92.2617 137.543ZM106.348 133.945V144H102.961V131.32H106.137L106.348 133.945ZM105.879 137.215H104.941C104.941 136.332 105.047 135.52 105.258 134.777C105.477 134.027 105.793 133.379 106.207 132.832C106.629 132.277 107.148 131.848 107.766 131.543C108.383 131.238 109.098 131.086 109.91 131.086C110.473 131.086 110.988 131.172 111.457 131.344C111.926 131.508 112.328 131.77 112.664 132.129C113.008 132.48 113.273 132.941 113.461 133.512C113.648 134.074 113.742 134.75 113.742 135.539V144H110.367V135.914C110.367 135.336 110.289 134.891 110.133 134.578C109.977 134.266 109.754 134.047 109.465 133.922C109.184 133.797 108.844 133.734 108.445 133.734C108.008 133.734 107.625 133.824 107.297 134.004C106.977 134.184 106.711 134.434 106.5 134.754C106.289 135.066 106.133 135.434 106.031 135.855C105.93 136.277 105.879 136.73 105.879 137.215ZM113.426 136.828L112.219 136.98C112.219 136.152 112.32 135.383 112.523 134.672C112.734 133.961 113.043 133.336 113.449 132.797C113.863 132.258 114.375 131.84 114.984 131.543C115.594 131.238 116.297 131.086 117.094 131.086C117.703 131.086 118.258 131.176 118.758 131.355C119.258 131.527 119.684 131.805 120.035 132.188C120.395 132.562 120.668 133.055 120.855 133.664C121.051 134.273 121.148 135.02 121.148 135.902V144H117.762V135.902C117.762 135.316 117.684 134.871 117.527 134.566C117.379 134.254 117.16 134.039 116.871 133.922C116.59 133.797 116.254 133.734 115.863 133.734C115.457 133.734 115.102 133.816 114.797 133.98C114.492 134.137 114.238 134.355 114.035 134.637C113.832 134.918 113.68 135.246 113.578 135.621C113.477 135.988 113.426 136.391 113.426 136.828ZM129.598 144.234C128.613 144.234 127.73 144.078 126.949 143.766C126.168 143.445 125.504 143.004 124.957 142.441C124.418 141.879 124.004 141.227 123.715 140.484C123.426 139.734 123.281 138.938 123.281 138.094V137.625C123.281 136.664 123.418 135.785 123.691 134.988C123.965 134.191 124.355 133.5 124.863 132.914C125.379 132.328 126.004 131.879 126.738 131.566C127.473 131.246 128.301 131.086 129.223 131.086C130.121 131.086 130.918 131.234 131.613 131.531C132.309 131.828 132.891 132.25 133.359 132.797C133.836 133.344 134.195 134 134.438 134.766C134.68 135.523 134.801 136.367 134.801 137.297V138.703H124.723V136.453H131.484V136.195C131.484 135.727 131.398 135.309 131.227 134.941C131.062 134.566 130.812 134.27 130.477 134.051C130.141 133.832 129.711 133.723 129.188 133.723C128.742 133.723 128.359 133.82 128.039 134.016C127.719 134.211 127.457 134.484 127.254 134.836C127.059 135.188 126.91 135.602 126.809 136.078C126.715 136.547 126.668 137.062 126.668 137.625V138.094C126.668 138.602 126.738 139.07 126.879 139.5C127.027 139.93 127.234 140.301 127.5 140.613C127.773 140.926 128.102 141.168 128.484 141.34C128.875 141.512 129.316 141.598 129.809 141.598C130.418 141.598 130.984 141.48 131.508 141.246C132.039 141.004 132.496 140.641 132.879 140.156L134.52 141.938C134.254 142.32 133.891 142.688 133.43 143.039C132.977 143.391 132.43 143.68 131.789 143.906C131.148 144.125 130.418 144.234 129.598 144.234ZM140.098 134.086V144H136.723V131.32H139.898L140.098 134.086ZM143.918 131.238L143.859 134.367C143.695 134.344 143.496 134.324 143.262 134.309C143.035 134.285 142.828 134.273 142.641 134.273C142.164 134.273 141.75 134.336 141.398 134.461C141.055 134.578 140.766 134.754 140.531 134.988C140.305 135.223 140.133 135.508 140.016 135.844C139.906 136.18 139.844 136.562 139.828 136.992L139.148 136.781C139.148 135.961 139.23 135.207 139.395 134.52C139.559 133.824 139.797 133.219 140.109 132.703C140.43 132.188 140.82 131.789 141.281 131.508C141.742 131.227 142.27 131.086 142.863 131.086C143.051 131.086 143.242 131.102 143.438 131.133C143.633 131.156 143.793 131.191 143.918 131.238ZM73.5352 166.762V154.938H77.0391V166.762C77.0391 167.902 76.7891 168.883 76.2891 169.703C75.7891 170.516 75.1055 171.141 74.2383 171.578C73.3789 172.016 72.4102 172.234 71.332 172.234C70.2148 172.234 69.2266 172.047 68.3672 171.672C67.5078 171.297 66.832 170.723 66.3398 169.949C65.8477 169.168 65.6016 168.18 65.6016 166.984H69.1289C69.1289 167.609 69.2148 168.105 69.3867 168.473C69.5664 168.84 69.8203 169.102 70.1484 169.258C70.4766 169.414 70.8711 169.492 71.332 169.492C71.7773 169.492 72.1641 169.387 72.4922 169.176C72.8203 168.965 73.0742 168.656 73.2539 168.25C73.4414 167.844 73.5352 167.348 73.5352 166.762ZM79.2891 165.789V165.543C79.2891 164.613 79.4219 163.758 79.6875 162.977C79.9531 162.188 80.3398 161.504 80.8477 160.926C81.3555 160.348 81.9805 159.898 82.7227 159.578C83.4648 159.25 84.3164 159.086 85.2773 159.086C86.2383 159.086 87.0938 159.25 87.8438 159.578C88.5938 159.898 89.2227 160.348 89.7305 160.926C90.2461 161.504 90.6367 162.188 90.9023 162.977C91.168 163.758 91.3008 164.613 91.3008 165.543V165.789C91.3008 166.711 91.168 167.566 90.9023 168.355C90.6367 169.137 90.2461 169.82 89.7305 170.406C89.2227 170.984 88.5977 171.434 87.8555 171.754C87.1133 172.074 86.2617 172.234 85.3008 172.234C84.3398 172.234 83.4844 172.074 82.7344 171.754C81.9922 171.434 81.3633 170.984 80.8477 170.406C80.3398 169.82 79.9531 169.137 79.6875 168.355C79.4219 167.566 79.2891 166.711 79.2891 165.789ZM82.6641 165.543V165.789C82.6641 166.32 82.7109 166.816 82.8047 167.277C82.8984 167.738 83.0469 168.145 83.25 168.496C83.4609 168.84 83.7344 169.109 84.0703 169.305C84.4062 169.5 84.8164 169.598 85.3008 169.598C85.7695 169.598 86.1719 169.5 86.5078 169.305C86.8438 169.109 87.1133 168.84 87.3164 168.496C87.5195 168.145 87.668 167.738 87.7617 167.277C87.8633 166.816 87.9141 166.32 87.9141 165.789V165.543C87.9141 165.027 87.8633 164.543 87.7617 164.09C87.668 163.629 87.5156 163.223 87.3047 162.871C87.1016 162.512 86.832 162.23 86.4961 162.027C86.1602 161.824 85.7539 161.723 85.2773 161.723C84.8008 161.723 84.3945 161.824 84.0586 162.027C83.7305 162.23 83.4609 162.512 83.25 162.871C83.0469 163.223 82.8984 163.629 82.8047 164.09C82.7109 164.543 82.6641 165.027 82.6641 165.543ZM93.375 154H96.75V169.094L96.4102 172H93.375V154ZM104.777 165.531V165.777C104.777 166.723 104.676 167.59 104.473 168.379C104.277 169.168 103.973 169.852 103.559 170.43C103.145 171 102.629 171.445 102.012 171.766C101.402 172.078 100.684 172.234 99.8555 172.234C99.082 172.234 98.4102 172.078 97.8398 171.766C97.2773 171.453 96.8047 171.012 96.4219 170.441C96.0391 169.871 95.7305 169.203 95.4961 168.438C95.2617 167.672 95.0859 166.836 94.9688 165.93V165.391C95.0859 164.484 95.2617 163.648 95.4961 162.883C95.7305 162.117 96.0391 161.449 96.4219 160.879C96.8047 160.309 97.2773 159.867 97.8398 159.555C98.4023 159.242 99.0664 159.086 99.832 159.086C100.668 159.086 101.395 159.246 102.012 159.566C102.637 159.879 103.152 160.324 103.559 160.902C103.973 161.473 104.277 162.152 104.473 162.941C104.676 163.723 104.777 164.586 104.777 165.531ZM101.402 165.777V165.531C101.402 165.016 101.363 164.531 101.285 164.078C101.215 163.617 101.09 163.215 100.91 162.871C100.73 162.52 100.484 162.242 100.172 162.039C99.8672 161.836 99.4727 161.734 98.9883 161.734C98.5273 161.734 98.1367 161.812 97.8164 161.969C97.4961 162.125 97.2305 162.344 97.0195 162.625C96.8164 162.906 96.6641 163.242 96.5625 163.633C96.4609 164.016 96.3984 164.438 96.375 164.898V166.434C96.3984 167.051 96.5 167.598 96.6797 168.074C96.8672 168.543 97.1484 168.914 97.5234 169.188C97.9062 169.453 98.4023 169.586 99.0117 169.586C99.4883 169.586 99.8828 169.492 100.195 169.305C100.508 169.117 100.75 168.852 100.922 168.508C101.102 168.164 101.227 167.762 101.297 167.301C101.367 166.832 101.402 166.324 101.402 165.777ZM113.73 168.496C113.73 168.254 113.66 168.035 113.52 167.84C113.379 167.645 113.117 167.465 112.734 167.301C112.359 167.129 111.816 166.973 111.105 166.832C110.465 166.691 109.867 166.516 109.312 166.305C108.766 166.086 108.289 165.824 107.883 165.52C107.484 165.215 107.172 164.855 106.945 164.441C106.719 164.02 106.605 163.539 106.605 163C106.605 162.469 106.719 161.969 106.945 161.5C107.18 161.031 107.512 160.617 107.941 160.258C108.379 159.891 108.91 159.605 109.535 159.402C110.168 159.191 110.879 159.086 111.668 159.086C112.77 159.086 113.715 159.262 114.504 159.613C115.301 159.965 115.91 160.449 116.332 161.066C116.762 161.676 116.977 162.371 116.977 163.152H113.602C113.602 162.824 113.531 162.531 113.391 162.273C113.258 162.008 113.047 161.801 112.758 161.652C112.477 161.496 112.109 161.418 111.656 161.418C111.281 161.418 110.957 161.484 110.684 161.617C110.41 161.742 110.199 161.914 110.051 162.133C109.91 162.344 109.84 162.578 109.84 162.836C109.84 163.031 109.879 163.207 109.957 163.363C110.043 163.512 110.18 163.648 110.367 163.773C110.555 163.898 110.797 164.016 111.094 164.125C111.398 164.227 111.773 164.32 112.219 164.406C113.133 164.594 113.949 164.84 114.668 165.145C115.387 165.441 115.957 165.848 116.379 166.363C116.801 166.871 117.012 167.539 117.012 168.367C117.012 168.93 116.887 169.445 116.637 169.914C116.387 170.383 116.027 170.793 115.559 171.145C115.09 171.488 114.527 171.758 113.871 171.953C113.223 172.141 112.492 172.234 111.68 172.234C110.5 172.234 109.5 172.023 108.68 171.602C107.867 171.18 107.25 170.645 106.828 169.996C106.414 169.34 106.207 168.668 106.207 167.98H109.406C109.422 168.441 109.539 168.812 109.758 169.094C109.984 169.375 110.27 169.578 110.613 169.703C110.965 169.828 111.344 169.891 111.75 169.891C112.188 169.891 112.551 169.832 112.84 169.715C113.129 169.59 113.348 169.426 113.496 169.223C113.652 169.012 113.73 168.77 113.73 168.496Z" fill="#3B8F49"/>
<path d="M142.715 104.143C142.715 106.378 141.826 108.522 140.246 110.103C138.665 111.683 136.521 112.571 134.286 112.571H58.4286C56.1931 112.571 54.0493 111.683 52.4686 110.103C50.888 108.522 50 106.378 50 104.143V11.4286C50 9.19315 50.888 7.04934 52.4686 5.46867C54.0493 3.88801 56.1931 3 58.4286 3H105.509C107.744 3 109.888 3.88801 111.469 5.46867L140.246 34.2456C141.826 35.8263 142.715 37.9701 142.715 40.2055V104.143Z" stroke="#3B8F49" stroke-width="6" stroke-linecap="round" stroke-linejoin="round"/>
<path d="M101.065 52.5178H122.137" stroke="#3B8F49" stroke-width="6" stroke-linecap="round" stroke-linejoin="round"/>
<path d="M101.065 81.7545H122.137" stroke="#3B8F49" stroke-width="6" stroke-linecap="round" stroke-linejoin="round"/>
<path d="M68.4705 81.277L75.5327 88.3392L87.303 71.8607" stroke="#3B8F49" stroke-width="6" stroke-linecap="round" stroke-linejoin="round"/>
<path d="M68.4705 51.5137L75.5327 58.5759L87.303 42.0974" stroke="#3B8F49" stroke-width="6" stroke-linecap="round" stroke-linejoin="round"/>
</svg>
