<svg width="183" height="57" viewBox="0 0 183 57" fill="none" xmlns="http://www.w3.org/2000/svg">
<path d="M75.8789 42.082V48.8438C75.6133 49.1641 75.2031 49.5117 74.6484 49.8867C74.0938 50.2539 73.3789 50.5703 72.5039 50.8359C71.6289 51.1016 70.5703 51.2344 69.3281 51.2344C68.2266 51.2344 67.2227 51.0547 66.3164 50.6953C65.4102 50.3281 64.6289 49.793 63.9727 49.0898C63.3242 48.3867 62.8242 47.5273 62.4727 46.5117C62.1211 45.4883 61.9453 44.3203 61.9453 43.0078V41.9414C61.9453 40.6289 62.1133 39.4609 62.4492 38.4375C62.793 37.4141 63.2812 36.5508 63.9141 35.8477C64.5469 35.1445 65.3008 34.6094 66.1758 34.2422C67.0508 33.875 68.0234 33.6914 69.0938 33.6914C70.5781 33.6914 71.7969 33.9336 72.75 34.418C73.7031 34.8945 74.4297 35.5586 74.9297 36.4102C75.4375 37.2539 75.75 38.2227 75.8672 39.3164H72.457C72.3711 38.7383 72.207 38.2344 71.9648 37.8047C71.7227 37.375 71.375 37.0391 70.9219 36.7969C70.4766 36.5547 69.8984 36.4336 69.1875 36.4336C68.6016 36.4336 68.0781 36.5547 67.6172 36.7969C67.1641 37.0312 66.7812 37.3789 66.4688 37.8398C66.1562 38.3008 65.918 38.8711 65.7539 39.5508C65.5898 40.2305 65.5078 41.0195 65.5078 41.918V43.0078C65.5078 43.8984 65.5938 44.6875 65.7656 45.375C65.9375 46.0547 66.1914 46.6289 66.5273 47.0977C66.8711 47.5586 67.293 47.9062 67.793 48.1406C68.293 48.375 68.875 48.4922 69.5391 48.4922C70.0938 48.4922 70.5547 48.4453 70.9219 48.3516C71.2969 48.2578 71.5977 48.1445 71.8242 48.0117C72.0586 47.8711 72.2383 47.7383 72.3633 47.6133V44.5898H69.1523V42.082H75.8789ZM85.3477 48.1406V42.4922C85.3477 42.0859 85.2812 41.7383 85.1484 41.4492C85.0156 41.1523 84.8086 40.9219 84.5273 40.7578C84.2539 40.5938 83.8984 40.5117 83.4609 40.5117C83.0859 40.5117 82.7617 40.5781 82.4883 40.7109C82.2148 40.8359 82.0039 41.0195 81.8555 41.2617C81.707 41.4961 81.6328 41.7734 81.6328 42.0938H78.2578C78.2578 41.5547 78.3828 41.043 78.6328 40.5586C78.8828 40.0742 79.2461 39.6484 79.7227 39.2812C80.1992 38.9062 80.7656 38.6133 81.4219 38.4023C82.0859 38.1914 82.8281 38.0859 83.6484 38.0859C84.6328 38.0859 85.5078 38.25 86.2734 38.5781C87.0391 38.9062 87.6406 39.3984 88.0781 40.0547C88.5234 40.7109 88.7461 41.5312 88.7461 42.5156V47.9414C88.7461 48.6367 88.7891 49.207 88.875 49.6523C88.9609 50.0898 89.0859 50.4727 89.25 50.8008V51H85.8398C85.6758 50.6562 85.5508 50.2266 85.4648 49.7109C85.3867 49.1875 85.3477 48.6641 85.3477 48.1406ZM85.793 43.2773L85.8164 45.1875H83.9297C83.4844 45.1875 83.0977 45.2383 82.7695 45.3398C82.4414 45.4414 82.1719 45.5859 81.9609 45.7734C81.75 45.9531 81.5938 46.1641 81.4922 46.4062C81.3984 46.6484 81.3516 46.9141 81.3516 47.2031C81.3516 47.4922 81.418 47.7539 81.5508 47.9883C81.6836 48.2148 81.875 48.3945 82.125 48.5273C82.375 48.6523 82.668 48.7148 83.0039 48.7148C83.5117 48.7148 83.9531 48.6133 84.3281 48.4102C84.7031 48.207 84.9922 47.957 85.1953 47.6602C85.4062 47.3633 85.5156 47.082 85.5234 46.8164L86.4141 48.2461C86.2891 48.5664 86.1172 48.8984 85.8984 49.2422C85.6875 49.5859 85.418 49.9102 85.0898 50.2148C84.7617 50.5117 84.3672 50.7578 83.9062 50.9531C83.4453 51.1406 82.8984 51.2344 82.2656 51.2344C81.4609 51.2344 80.7305 51.0742 80.0742 50.7539C79.4258 50.4258 78.9102 49.9766 78.5273 49.4062C78.1523 48.8281 77.9648 48.1719 77.9648 47.4375C77.9648 46.7734 78.0898 46.1836 78.3398 45.668C78.5898 45.1523 78.957 44.7188 79.4414 44.3672C79.9336 44.0078 80.5469 43.7383 81.2812 43.5586C82.0156 43.3711 82.8672 43.2773 83.8359 43.2773H85.793ZM94.9102 38.3203V51H91.5234V38.3203H94.9102ZM91.3125 35.0156C91.3125 34.5234 91.4844 34.1172 91.8281 33.7969C92.1719 33.4766 92.6328 33.3164 93.2109 33.3164C93.7812 33.3164 94.2383 33.4766 94.582 33.7969C94.9336 34.1172 95.1094 34.5234 95.1094 35.0156C95.1094 35.5078 94.9336 35.9141 94.582 36.2344C94.2383 36.5547 93.7812 36.7148 93.2109 36.7148C92.6328 36.7148 92.1719 36.5547 91.8281 36.2344C91.4844 35.9141 91.3125 35.5078 91.3125 35.0156ZM101.004 41.0273V51H97.6289V38.3203H100.793L101.004 41.0273ZM100.512 44.2148H99.5977C99.5977 43.2773 99.7188 42.4336 99.9609 41.6836C100.203 40.9258 100.543 40.2812 100.98 39.75C101.418 39.2109 101.938 38.8008 102.539 38.5195C103.148 38.2305 103.828 38.0859 104.578 38.0859C105.172 38.0859 105.715 38.1719 106.207 38.3438C106.699 38.5156 107.121 38.7891 107.473 39.1641C107.832 39.5391 108.105 40.0352 108.293 40.6523C108.488 41.2695 108.586 42.0234 108.586 42.9141V51H105.188V42.9023C105.188 42.3398 105.109 41.9023 104.953 41.5898C104.797 41.2773 104.566 41.0586 104.262 40.9336C103.965 40.8008 103.598 40.7344 103.16 40.7344C102.707 40.7344 102.312 40.8242 101.977 41.0039C101.648 41.1836 101.375 41.4336 101.156 41.7539C100.945 42.0664 100.785 42.4336 100.676 42.8555C100.566 43.2773 100.512 43.7305 100.512 44.2148ZM118.008 47.4961C118.008 47.2539 117.938 47.0352 117.797 46.8398C117.656 46.6445 117.395 46.4648 117.012 46.3008C116.637 46.1289 116.094 45.9727 115.383 45.832C114.742 45.6914 114.145 45.5156 113.59 45.3047C113.043 45.0859 112.566 44.8242 112.16 44.5195C111.762 44.2148 111.449 43.8555 111.223 43.4414C110.996 43.0195 110.883 42.5391 110.883 42C110.883 41.4688 110.996 40.9688 111.223 40.5C111.457 40.0312 111.789 39.6172 112.219 39.2578C112.656 38.8906 113.188 38.6055 113.812 38.4023C114.445 38.1914 115.156 38.0859 115.945 38.0859C117.047 38.0859 117.992 38.2617 118.781 38.6133C119.578 38.9648 120.188 39.4492 120.609 40.0664C121.039 40.6758 121.254 41.3711 121.254 42.1523H117.879C117.879 41.8242 117.809 41.5312 117.668 41.2734C117.535 41.0078 117.324 40.8008 117.035 40.6523C116.754 40.4961 116.387 40.418 115.934 40.418C115.559 40.418 115.234 40.4844 114.961 40.6172C114.688 40.7422 114.477 40.9141 114.328 41.1328C114.188 41.3438 114.117 41.5781 114.117 41.8359C114.117 42.0312 114.156 42.207 114.234 42.3633C114.32 42.5117 114.457 42.6484 114.645 42.7734C114.832 42.8984 115.074 43.0156 115.371 43.125C115.676 43.2266 116.051 43.3203 116.496 43.4062C117.41 43.5938 118.227 43.8398 118.945 44.1445C119.664 44.4414 120.234 44.8477 120.656 45.3633C121.078 45.8711 121.289 46.5391 121.289 47.3672C121.289 47.9297 121.164 48.4453 120.914 48.9141C120.664 49.3828 120.305 49.793 119.836 50.1445C119.367 50.4883 118.805 50.7578 118.148 50.9531C117.5 51.1406 116.77 51.2344 115.957 51.2344C114.777 51.2344 113.777 51.0234 112.957 50.6016C112.145 50.1797 111.527 49.6445 111.105 48.9961C110.691 48.3398 110.484 47.668 110.484 46.9805H113.684C113.699 47.4414 113.816 47.8125 114.035 48.0938C114.262 48.375 114.547 48.5781 114.891 48.7031C115.242 48.8281 115.621 48.8906 116.027 48.8906C116.465 48.8906 116.828 48.832 117.117 48.7148C117.406 48.5898 117.625 48.4258 117.773 48.2227C117.93 48.0117 118.008 47.7695 118.008 47.4961Z" fill="#3B8F49"/>
<path d="M80.7932 9.9668H84.824V20.6985H80.7932C80.5677 20.6985 80.3514 20.609 80.1919 20.4494C80.0325 20.29 79.9429 20.0736 79.9429 19.8482V10.8172C79.9429 10.5916 80.0325 10.3753 80.1919 10.2159C80.3514 10.0564 80.5677 9.9668 80.7932 9.9668Z" stroke="#3B8F49" stroke-width="1.71" stroke-linecap="round" stroke-linejoin="round"/>
<path d="M84.824 9.96617L89.1439 3.06115C89.3113 2.78823 89.5465 2.56332 89.8267 2.40833C90.1069 2.25334 90.4224 2.17358 90.7426 2.17677C90.9947 2.16766 91.2461 2.2092 91.482 2.29893C91.7178 2.38865 91.9332 2.52473 92.1156 2.69914C92.2979 2.87355 92.4434 3.08273 92.5435 3.31435C92.6436 3.54595 92.6963 3.79528 92.6984 4.04758V8.99674H100.165C100.441 9.00569 100.711 9.07293 100.959 9.19406C101.208 9.31517 101.427 9.48741 101.604 9.69946C101.781 9.91152 101.91 10.1586 101.985 10.4244C102.059 10.6902 102.076 10.9688 102.036 11.2417L100.675 20.0176C100.617 20.4866 100.389 20.9183 100.036 21.2315C99.6818 21.5447 99.2256 21.7178 98.753 21.7183H87.5962C87.0651 21.7204 86.5409 21.5981 86.0655 21.3611L84.841 20.7489" stroke="#3B8F49" stroke-width="1.71" stroke-linecap="round" stroke-linejoin="round"/>
<path d="M84.824 9.96643V20.6982" stroke="#3B8F49" stroke-width="1.71" stroke-linecap="round" stroke-linejoin="round"/>
</svg>
