<svg width="183" height="109" viewBox="0 0 183 109" fill="none" xmlns="http://www.w3.org/2000/svg">
<path d="M99.7856 3H118.357V21.5714" stroke="#3B8F49" stroke-width="6" stroke-linecap="round" stroke-linejoin="round"/>
<path d="M118.357 3L92.125 29.2321C91.6911 29.6575 91.1076 29.8957 90.5 29.8957C89.8924 29.8957 89.3089 29.6575 88.875 29.2321L78.1964 18.5536C77.7625 18.1282 77.1791 17.89 76.5714 17.89C75.9638 17.89 75.3804 18.1282 74.9464 18.5536L58 35.5" stroke="#3B8F49" stroke-width="6" stroke-linecap="round" stroke-linejoin="round"/>
<path d="M82.043 69.082V75.8438C81.7773 76.1641 81.3672 76.5117 80.8125 76.8867C80.2578 77.2539 79.543 77.5703 78.668 77.8359C77.793 78.1016 76.7344 78.2344 75.4922 78.2344C74.3906 78.2344 73.3867 78.0547 72.4805 77.6953C71.5742 77.3281 70.793 76.793 70.1367 76.0898C69.4883 75.3867 68.9883 74.5273 68.6367 73.5117C68.2852 72.4883 68.1094 71.3203 68.1094 70.0078V68.9414C68.1094 67.6289 68.2773 66.4609 68.6133 65.4375C68.957 64.4141 69.4453 63.5508 70.0781 62.8477C70.7109 62.1445 71.4648 61.6094 72.3398 61.2422C73.2148 60.875 74.1875 60.6914 75.2578 60.6914C76.7422 60.6914 77.9609 60.9336 78.9141 61.418C79.8672 61.8945 80.5938 62.5586 81.0938 63.4102C81.6016 64.2539 81.9141 65.2227 82.0312 66.3164H78.6211C78.5352 65.7383 78.3711 65.2344 78.1289 64.8047C77.8867 64.375 77.5391 64.0391 77.0859 63.7969C76.6406 63.5547 76.0625 63.4336 75.3516 63.4336C74.7656 63.4336 74.2422 63.5547 73.7812 63.7969C73.3281 64.0312 72.9453 64.3789 72.6328 64.8398C72.3203 65.3008 72.082 65.8711 71.918 66.5508C71.7539 67.2305 71.6719 68.0195 71.6719 68.918V70.0078C71.6719 70.8984 71.7578 71.6875 71.9297 72.375C72.1016 73.0547 72.3555 73.6289 72.6914 74.0977C73.0352 74.5586 73.457 74.9062 73.957 75.1406C74.457 75.375 75.0391 75.4922 75.7031 75.4922C76.2578 75.4922 76.7188 75.4453 77.0859 75.3516C77.4609 75.2578 77.7617 75.1445 77.9883 75.0117C78.2227 74.8711 78.4023 74.7383 78.5273 74.6133V71.5898H75.3164V69.082H82.043ZM91.5117 75.1406V69.4922C91.5117 69.0859 91.4453 68.7383 91.3125 68.4492C91.1797 68.1523 90.9727 67.9219 90.6914 67.7578C90.418 67.5938 90.0625 67.5117 89.625 67.5117C89.25 67.5117 88.9258 67.5781 88.6523 67.7109C88.3789 67.8359 88.168 68.0195 88.0195 68.2617C87.8711 68.4961 87.7969 68.7734 87.7969 69.0938H84.4219C84.4219 68.5547 84.5469 68.043 84.7969 67.5586C85.0469 67.0742 85.4102 66.6484 85.8867 66.2812C86.3633 65.9062 86.9297 65.6133 87.5859 65.4023C88.25 65.1914 88.9922 65.0859 89.8125 65.0859C90.7969 65.0859 91.6719 65.25 92.4375 65.5781C93.2031 65.9062 93.8047 66.3984 94.2422 67.0547C94.6875 67.7109 94.9102 68.5312 94.9102 69.5156V74.9414C94.9102 75.6367 94.9531 76.207 95.0391 76.6523C95.125 77.0898 95.25 77.4727 95.4141 77.8008V78H92.0039C91.8398 77.6562 91.7148 77.2266 91.6289 76.7109C91.5508 76.1875 91.5117 75.6641 91.5117 75.1406ZM91.957 70.2773L91.9805 72.1875H90.0938C89.6484 72.1875 89.2617 72.2383 88.9336 72.3398C88.6055 72.4414 88.3359 72.5859 88.125 72.7734C87.9141 72.9531 87.7578 73.1641 87.6562 73.4062C87.5625 73.6484 87.5156 73.9141 87.5156 74.2031C87.5156 74.4922 87.582 74.7539 87.7148 74.9883C87.8477 75.2148 88.0391 75.3945 88.2891 75.5273C88.5391 75.6523 88.832 75.7148 89.168 75.7148C89.6758 75.7148 90.1172 75.6133 90.4922 75.4102C90.8672 75.207 91.1562 74.957 91.3594 74.6602C91.5703 74.3633 91.6797 74.082 91.6875 73.8164L92.5781 75.2461C92.4531 75.5664 92.2812 75.8984 92.0625 76.2422C91.8516 76.5859 91.582 76.9102 91.2539 77.2148C90.9258 77.5117 90.5312 77.7578 90.0703 77.9531C89.6094 78.1406 89.0625 78.2344 88.4297 78.2344C87.625 78.2344 86.8945 78.0742 86.2383 77.7539C85.5898 77.4258 85.0742 76.9766 84.6914 76.4062C84.3164 75.8281 84.1289 75.1719 84.1289 74.4375C84.1289 73.7734 84.2539 73.1836 84.5039 72.668C84.7539 72.1523 85.1211 71.7188 85.6055 71.3672C86.0977 71.0078 86.7109 70.7383 87.4453 70.5586C88.1797 70.3711 89.0312 70.2773 90 70.2773H91.957ZM101.074 65.3203V78H97.6875V65.3203H101.074ZM97.4766 62.0156C97.4766 61.5234 97.6484 61.1172 97.9922 60.7969C98.3359 60.4766 98.7969 60.3164 99.375 60.3164C99.9453 60.3164 100.402 60.4766 100.746 60.7969C101.098 61.1172 101.273 61.5234 101.273 62.0156C101.273 62.5078 101.098 62.9141 100.746 63.2344C100.402 63.5547 99.9453 63.7148 99.375 63.7148C98.7969 63.7148 98.3359 63.5547 97.9922 63.2344C97.6484 62.9141 97.4766 62.5078 97.4766 62.0156ZM107.168 68.0273V78H103.793V65.3203H106.957L107.168 68.0273ZM106.676 71.2148H105.762C105.762 70.2773 105.883 69.4336 106.125 68.6836C106.367 67.9258 106.707 67.2812 107.145 66.75C107.582 66.2109 108.102 65.8008 108.703 65.5195C109.312 65.2305 109.992 65.0859 110.742 65.0859C111.336 65.0859 111.879 65.1719 112.371 65.3438C112.863 65.5156 113.285 65.7891 113.637 66.1641C113.996 66.5391 114.27 67.0352 114.457 67.6523C114.652 68.2695 114.75 69.0234 114.75 69.9141V78H111.352V69.9023C111.352 69.3398 111.273 68.9023 111.117 68.5898C110.961 68.2773 110.73 68.0586 110.426 67.9336C110.129 67.8008 109.762 67.7344 109.324 67.7344C108.871 67.7344 108.477 67.8242 108.141 68.0039C107.812 68.1836 107.539 68.4336 107.32 68.7539C107.109 69.0664 106.949 69.4336 106.84 69.8555C106.73 70.2773 106.676 70.7305 106.676 71.2148ZM56.6367 100.34H60.1406C60.0703 101.488 59.7539 102.508 59.1914 103.398C58.6367 104.289 57.8594 104.984 56.8594 105.484C55.8672 105.984 54.6719 106.234 53.2734 106.234C52.1797 106.234 51.1992 106.047 50.332 105.672C49.4648 105.289 48.7227 104.742 48.1055 104.031C47.4961 103.32 47.0312 102.461 46.7109 101.453C46.3906 100.445 46.2305 99.3164 46.2305 98.0664V96.8828C46.2305 95.6328 46.3945 94.5039 46.7227 93.4961C47.0586 92.4805 47.5352 91.6172 48.1523 90.9062C48.7773 90.1953 49.5234 89.6484 50.3906 89.2656C51.2578 88.8828 52.2266 88.6914 53.2969 88.6914C54.7188 88.6914 55.918 88.9492 56.8945 89.4648C57.8789 89.9805 58.6406 90.6914 59.1797 91.5977C59.7266 92.5039 60.0547 93.5352 60.1641 94.6914H56.6484C56.6094 94.0039 56.4727 93.4219 56.2383 92.9453C56.0039 92.4609 55.6484 92.0977 55.1719 91.8555C54.7031 91.6055 54.0781 91.4805 53.2969 91.4805C52.7109 91.4805 52.1992 91.5898 51.7617 91.8086C51.3242 92.0273 50.957 92.3594 50.6602 92.8047C50.3633 93.25 50.1406 93.8125 49.9922 94.4922C49.8516 95.1641 49.7812 95.9531 49.7812 96.8594V98.0664C49.7812 98.9492 49.8477 99.7266 49.9805 100.398C50.1133 101.062 50.3164 101.625 50.5898 102.086C50.8711 102.539 51.2305 102.883 51.668 103.117C52.1133 103.344 52.6484 103.457 53.2734 103.457C54.0078 103.457 54.6133 103.34 55.0898 103.105C55.5664 102.871 55.9297 102.523 56.1797 102.062C56.4375 101.602 56.5898 101.027 56.6367 100.34ZM65.6133 96.0859V106H62.2383V93.3203H65.4141L65.6133 96.0859ZM69.4336 93.2383L69.375 96.3672C69.2109 96.3438 69.0117 96.3242 68.7773 96.3086C68.5508 96.2852 68.3438 96.2734 68.1562 96.2734C67.6797 96.2734 67.2656 96.3359 66.9141 96.4609C66.5703 96.5781 66.2812 96.7539 66.0469 96.9883C65.8203 97.2227 65.6484 97.5078 65.5312 97.8438C65.4219 98.1797 65.3594 98.5625 65.3438 98.9922L64.6641 98.7812C64.6641 97.9609 64.7461 97.207 64.9102 96.5195C65.0742 95.8242 65.3125 95.2188 65.625 94.7031C65.9453 94.1875 66.3359 93.7891 66.7969 93.5078C67.2578 93.2266 67.7852 93.0859 68.3789 93.0859C68.5664 93.0859 68.7578 93.1016 68.9531 93.1328C69.1484 93.1562 69.3086 93.1914 69.4336 93.2383ZM76.6289 106.234C75.6445 106.234 74.7617 106.078 73.9805 105.766C73.1992 105.445 72.5352 105.004 71.9883 104.441C71.4492 103.879 71.0352 103.227 70.7461 102.484C70.457 101.734 70.3125 100.938 70.3125 100.094V99.625C70.3125 98.6641 70.4492 97.7852 70.7227 96.9883C70.9961 96.1914 71.3867 95.5 71.8945 94.9141C72.4102 94.3281 73.0352 93.8789 73.7695 93.5664C74.5039 93.2461 75.332 93.0859 76.2539 93.0859C77.1523 93.0859 77.9492 93.2344 78.6445 93.5312C79.3398 93.8281 79.9219 94.25 80.3906 94.7969C80.8672 95.3438 81.2266 96 81.4688 96.7656C81.7109 97.5234 81.832 98.3672 81.832 99.2969V100.703H71.7539V98.4531H78.5156V98.1953C78.5156 97.7266 78.4297 97.3086 78.2578 96.9414C78.0938 96.5664 77.8438 96.2695 77.5078 96.0508C77.1719 95.832 76.7422 95.7227 76.2188 95.7227C75.7734 95.7227 75.3906 95.8203 75.0703 96.0156C74.75 96.2109 74.4883 96.4844 74.2852 96.8359C74.0898 97.1875 73.9414 97.6016 73.8398 98.0781C73.7461 98.5469 73.6992 99.0625 73.6992 99.625V100.094C73.6992 100.602 73.7695 101.07 73.9102 101.5C74.0586 101.93 74.2656 102.301 74.5312 102.613C74.8047 102.926 75.1328 103.168 75.5156 103.34C75.9062 103.512 76.3477 103.598 76.8398 103.598C77.4492 103.598 78.0156 103.48 78.5391 103.246C79.0703 103.004 79.5273 102.641 79.9102 102.156L81.5508 103.938C81.2852 104.32 80.9219 104.688 80.4609 105.039C80.0078 105.391 79.4609 105.68 78.8203 105.906C78.1797 106.125 77.4492 106.234 76.6289 106.234ZM90.5977 103.141V97.4922C90.5977 97.0859 90.5312 96.7383 90.3984 96.4492C90.2656 96.1523 90.0586 95.9219 89.7773 95.7578C89.5039 95.5938 89.1484 95.5117 88.7109 95.5117C88.3359 95.5117 88.0117 95.5781 87.7383 95.7109C87.4648 95.8359 87.2539 96.0195 87.1055 96.2617C86.957 96.4961 86.8828 96.7734 86.8828 97.0938H83.5078C83.5078 96.5547 83.6328 96.043 83.8828 95.5586C84.1328 95.0742 84.4961 94.6484 84.9727 94.2812C85.4492 93.9062 86.0156 93.6133 86.6719 93.4023C87.3359 93.1914 88.0781 93.0859 88.8984 93.0859C89.8828 93.0859 90.7578 93.25 91.5234 93.5781C92.2891 93.9062 92.8906 94.3984 93.3281 95.0547C93.7734 95.7109 93.9961 96.5312 93.9961 97.5156V102.941C93.9961 103.637 94.0391 104.207 94.125 104.652C94.2109 105.09 94.3359 105.473 94.5 105.801V106H91.0898C90.9258 105.656 90.8008 105.227 90.7148 104.711C90.6367 104.188 90.5977 103.664 90.5977 103.141ZM91.043 98.2773L91.0664 100.188H89.1797C88.7344 100.188 88.3477 100.238 88.0195 100.34C87.6914 100.441 87.4219 100.586 87.2109 100.773C87 100.953 86.8438 101.164 86.7422 101.406C86.6484 101.648 86.6016 101.914 86.6016 102.203C86.6016 102.492 86.668 102.754 86.8008 102.988C86.9336 103.215 87.125 103.395 87.375 103.527C87.625 103.652 87.918 103.715 88.2539 103.715C88.7617 103.715 89.2031 103.613 89.5781 103.41C89.9531 103.207 90.2422 102.957 90.4453 102.66C90.6562 102.363 90.7656 102.082 90.7734 101.816L91.6641 103.246C91.5391 103.566 91.3672 103.898 91.1484 104.242C90.9375 104.586 90.668 104.91 90.3398 105.215C90.0117 105.512 89.6172 105.758 89.1562 105.953C88.6953 106.141 88.1484 106.234 87.5156 106.234C86.7109 106.234 85.9805 106.074 85.3242 105.754C84.6758 105.426 84.1602 104.977 83.7773 104.406C83.4023 103.828 83.2148 103.172 83.2148 102.438C83.2148 101.773 83.3398 101.184 83.5898 100.668C83.8398 100.152 84.207 99.7188 84.6914 99.3672C85.1836 99.0078 85.7969 98.7383 86.5312 98.5586C87.2656 98.3711 88.1172 98.2773 89.0859 98.2773H91.043ZM102.809 93.3203V95.7109H95.4258V93.3203H102.809ZM97.2539 90.1914H100.629V102.18C100.629 102.547 100.676 102.828 100.77 103.023C100.871 103.219 101.02 103.355 101.215 103.434C101.41 103.504 101.656 103.539 101.953 103.539C102.164 103.539 102.352 103.531 102.516 103.516C102.688 103.492 102.832 103.469 102.949 103.445L102.961 105.93C102.672 106.023 102.359 106.098 102.023 106.152C101.688 106.207 101.316 106.234 100.91 106.234C100.168 106.234 99.5195 106.113 98.9648 105.871C98.418 105.621 97.9961 105.223 97.6992 104.676C97.4023 104.129 97.2539 103.41 97.2539 102.52V90.1914ZM103.887 99.7891V99.543C103.887 98.6133 104.02 97.7578 104.285 96.9766C104.551 96.1875 104.938 95.5039 105.445 94.9258C105.953 94.3477 106.578 93.8984 107.32 93.5781C108.062 93.25 108.914 93.0859 109.875 93.0859C110.836 93.0859 111.691 93.25 112.441 93.5781C113.191 93.8984 113.82 94.3477 114.328 94.9258C114.844 95.5039 115.234 96.1875 115.5 96.9766C115.766 97.7578 115.898 98.6133 115.898 99.543V99.7891C115.898 100.711 115.766 101.566 115.5 102.355C115.234 103.137 114.844 103.82 114.328 104.406C113.82 104.984 113.195 105.434 112.453 105.754C111.711 106.074 110.859 106.234 109.898 106.234C108.938 106.234 108.082 106.074 107.332 105.754C106.59 105.434 105.961 104.984 105.445 104.406C104.938 103.82 104.551 103.137 104.285 102.355C104.02 101.566 103.887 100.711 103.887 99.7891ZM107.262 99.543V99.7891C107.262 100.32 107.309 100.816 107.402 101.277C107.496 101.738 107.645 102.145 107.848 102.496C108.059 102.84 108.332 103.109 108.668 103.305C109.004 103.5 109.414 103.598 109.898 103.598C110.367 103.598 110.77 103.5 111.105 103.305C111.441 103.109 111.711 102.84 111.914 102.496C112.117 102.145 112.266 101.738 112.359 101.277C112.461 100.816 112.512 100.32 112.512 99.7891V99.543C112.512 99.0273 112.461 98.543 112.359 98.0898C112.266 97.6289 112.113 97.2227 111.902 96.8711C111.699 96.5117 111.43 96.2305 111.094 96.0273C110.758 95.8242 110.352 95.7227 109.875 95.7227C109.398 95.7227 108.992 95.8242 108.656 96.0273C108.328 96.2305 108.059 96.5117 107.848 96.8711C107.645 97.2227 107.496 97.6289 107.402 98.0898C107.309 98.543 107.262 99.0273 107.262 99.543ZM121.348 96.0859V106H117.973V93.3203H121.148L121.348 96.0859ZM125.168 93.2383L125.109 96.3672C124.945 96.3438 124.746 96.3242 124.512 96.3086C124.285 96.2852 124.078 96.2734 123.891 96.2734C123.414 96.2734 123 96.3359 122.648 96.4609C122.305 96.5781 122.016 96.7539 121.781 96.9883C121.555 97.2227 121.383 97.5078 121.266 97.8438C121.156 98.1797 121.094 98.5625 121.078 98.9922L120.398 98.7812C120.398 97.9609 120.48 97.207 120.645 96.5195C120.809 95.8242 121.047 95.2188 121.359 94.7031C121.68 94.1875 122.07 93.7891 122.531 93.5078C122.992 93.2266 123.52 93.0859 124.113 93.0859C124.301 93.0859 124.492 93.1016 124.688 93.1328C124.883 93.1562 125.043 93.1914 125.168 93.2383ZM133.617 102.496C133.617 102.254 133.547 102.035 133.406 101.84C133.266 101.645 133.004 101.465 132.621 101.301C132.246 101.129 131.703 100.973 130.992 100.832C130.352 100.691 129.754 100.516 129.199 100.305C128.652 100.086 128.176 99.8242 127.77 99.5195C127.371 99.2148 127.059 98.8555 126.832 98.4414C126.605 98.0195 126.492 97.5391 126.492 97C126.492 96.4688 126.605 95.9688 126.832 95.5C127.066 95.0312 127.398 94.6172 127.828 94.2578C128.266 93.8906 128.797 93.6055 129.422 93.4023C130.055 93.1914 130.766 93.0859 131.555 93.0859C132.656 93.0859 133.602 93.2617 134.391 93.6133C135.188 93.9648 135.797 94.4492 136.219 95.0664C136.648 95.6758 136.863 96.3711 136.863 97.1523H133.488C133.488 96.8242 133.418 96.5312 133.277 96.2734C133.145 96.0078 132.934 95.8008 132.645 95.6523C132.363 95.4961 131.996 95.418 131.543 95.418C131.168 95.418 130.844 95.4844 130.57 95.6172C130.297 95.7422 130.086 95.9141 129.938 96.1328C129.797 96.3438 129.727 96.5781 129.727 96.8359C129.727 97.0312 129.766 97.207 129.844 97.3633C129.93 97.5117 130.066 97.6484 130.254 97.7734C130.441 97.8984 130.684 98.0156 130.98 98.125C131.285 98.2266 131.66 98.3203 132.105 98.4062C133.02 98.5938 133.836 98.8398 134.555 99.1445C135.273 99.4414 135.844 99.8477 136.266 100.363C136.688 100.871 136.898 101.539 136.898 102.367C136.898 102.93 136.773 103.445 136.523 103.914C136.273 104.383 135.914 104.793 135.445 105.145C134.977 105.488 134.414 105.758 133.758 105.953C133.109 106.141 132.379 106.234 131.566 106.234C130.387 106.234 129.387 106.023 128.566 105.602C127.754 105.18 127.137 104.645 126.715 103.996C126.301 103.34 126.094 102.668 126.094 101.98H129.293C129.309 102.441 129.426 102.812 129.645 103.094C129.871 103.375 130.156 103.578 130.5 103.703C130.852 103.828 131.23 103.891 131.637 103.891C132.074 103.891 132.438 103.832 132.727 103.715C133.016 103.59 133.234 103.426 133.383 103.223C133.539 103.012 133.617 102.77 133.617 102.496Z" fill="#3B8F49"/>
</svg>
