<svg width="183" height="57" viewBox="0 0 183 57" fill="none" xmlns="http://www.w3.org/2000/svg">
<path d="M69.5156 44.918H65.168V42.1758H69.5156C70.1875 42.1758 70.7344 42.0664 71.1562 41.8477C71.5781 41.6211 71.8867 41.3086 72.082 40.9102C72.2773 40.5117 72.375 40.0625 72.375 39.5625C72.375 39.0547 72.2773 38.582 72.082 38.1445C71.8867 37.707 71.5781 37.3555 71.1562 37.0898C70.7344 36.8242 70.1875 36.6914 69.5156 36.6914H66.3867V51H62.8711V33.9375H69.5156C70.8516 33.9375 71.9961 34.1797 72.9492 34.6641C73.9102 35.1406 74.6445 35.8008 75.1523 36.6445C75.6602 37.4883 75.9141 38.4531 75.9141 39.5391C75.9141 40.6406 75.6602 41.5938 75.1523 42.3984C74.6445 43.2031 73.9102 43.8242 72.9492 44.2617C71.9961 44.6992 70.8516 44.918 69.5156 44.918ZM84.832 48.1406V42.4922C84.832 42.0859 84.7656 41.7383 84.6328 41.4492C84.5 41.1523 84.293 40.9219 84.0117 40.7578C83.7383 40.5938 83.3828 40.5117 82.9453 40.5117C82.5703 40.5117 82.2461 40.5781 81.9727 40.7109C81.6992 40.8359 81.4883 41.0195 81.3398 41.2617C81.1914 41.4961 81.1172 41.7734 81.1172 42.0938H77.7422C77.7422 41.5547 77.8672 41.043 78.1172 40.5586C78.3672 40.0742 78.7305 39.6484 79.207 39.2812C79.6836 38.9062 80.25 38.6133 80.9062 38.4023C81.5703 38.1914 82.3125 38.0859 83.1328 38.0859C84.1172 38.0859 84.9922 38.25 85.7578 38.5781C86.5234 38.9062 87.125 39.3984 87.5625 40.0547C88.0078 40.7109 88.2305 41.5312 88.2305 42.5156V47.9414C88.2305 48.6367 88.2734 49.207 88.3594 49.6523C88.4453 50.0898 88.5703 50.4727 88.7344 50.8008V51H85.3242C85.1602 50.6562 85.0352 50.2266 84.9492 49.7109C84.8711 49.1875 84.832 48.6641 84.832 48.1406ZM85.2773 43.2773L85.3008 45.1875H83.4141C82.9688 45.1875 82.582 45.2383 82.2539 45.3398C81.9258 45.4414 81.6562 45.5859 81.4453 45.7734C81.2344 45.9531 81.0781 46.1641 80.9766 46.4062C80.8828 46.6484 80.8359 46.9141 80.8359 47.2031C80.8359 47.4922 80.9023 47.7539 81.0352 47.9883C81.168 48.2148 81.3594 48.3945 81.6094 48.5273C81.8594 48.6523 82.1523 48.7148 82.4883 48.7148C82.9961 48.7148 83.4375 48.6133 83.8125 48.4102C84.1875 48.207 84.4766 47.957 84.6797 47.6602C84.8906 47.3633 85 47.082 85.0078 46.8164L85.8984 48.2461C85.7734 48.5664 85.6016 48.8984 85.3828 49.2422C85.1719 49.5859 84.9023 49.9102 84.5742 50.2148C84.2461 50.5117 83.8516 50.7578 83.3906 50.9531C82.9297 51.1406 82.3828 51.2344 81.75 51.2344C80.9453 51.2344 80.2148 51.0742 79.5586 50.7539C78.9102 50.4258 78.3945 49.9766 78.0117 49.4062C77.6367 48.8281 77.4492 48.1719 77.4492 47.4375C77.4492 46.7734 77.5742 46.1836 77.8242 45.668C78.0742 45.1523 78.4414 44.7188 78.9258 44.3672C79.418 44.0078 80.0312 43.7383 80.7656 43.5586C81.5 43.3711 82.3516 43.2773 83.3203 43.2773H85.2773ZM94.3945 38.3203V51H91.0078V38.3203H94.3945ZM90.7969 35.0156C90.7969 34.5234 90.9688 34.1172 91.3125 33.7969C91.6562 33.4766 92.1172 33.3164 92.6953 33.3164C93.2656 33.3164 93.7227 33.4766 94.0664 33.7969C94.418 34.1172 94.5938 34.5234 94.5938 35.0156C94.5938 35.5078 94.418 35.9141 94.0664 36.2344C93.7227 36.5547 93.2656 36.7148 92.6953 36.7148C92.1172 36.7148 91.6562 36.5547 91.3125 36.2344C90.9688 35.9141 90.7969 35.5078 90.7969 35.0156ZM100.488 41.0273V51H97.1133V38.3203H100.277L100.488 41.0273ZM99.9961 44.2148H99.082C99.082 43.2773 99.2031 42.4336 99.4453 41.6836C99.6875 40.9258 100.027 40.2812 100.465 39.75C100.902 39.2109 101.422 38.8008 102.023 38.5195C102.633 38.2305 103.312 38.0859 104.062 38.0859C104.656 38.0859 105.199 38.1719 105.691 38.3438C106.184 38.5156 106.605 38.7891 106.957 39.1641C107.316 39.5391 107.59 40.0352 107.777 40.6523C107.973 41.2695 108.07 42.0234 108.07 42.9141V51H104.672V42.9023C104.672 42.3398 104.594 41.9023 104.438 41.5898C104.281 41.2773 104.051 41.0586 103.746 40.9336C103.449 40.8008 103.082 40.7344 102.645 40.7344C102.191 40.7344 101.797 40.8242 101.461 41.0039C101.133 41.1836 100.859 41.4336 100.641 41.7539C100.43 42.0664 100.27 42.4336 100.16 42.8555C100.051 43.2773 99.9961 43.7305 99.9961 44.2148ZM117.492 47.4961C117.492 47.2539 117.422 47.0352 117.281 46.8398C117.141 46.6445 116.879 46.4648 116.496 46.3008C116.121 46.1289 115.578 45.9727 114.867 45.832C114.227 45.6914 113.629 45.5156 113.074 45.3047C112.527 45.0859 112.051 44.8242 111.645 44.5195C111.246 44.2148 110.934 43.8555 110.707 43.4414C110.48 43.0195 110.367 42.5391 110.367 42C110.367 41.4688 110.48 40.9688 110.707 40.5C110.941 40.0312 111.273 39.6172 111.703 39.2578C112.141 38.8906 112.672 38.6055 113.297 38.4023C113.93 38.1914 114.641 38.0859 115.43 38.0859C116.531 38.0859 117.477 38.2617 118.266 38.6133C119.062 38.9648 119.672 39.4492 120.094 40.0664C120.523 40.6758 120.738 41.3711 120.738 42.1523H117.363C117.363 41.8242 117.293 41.5312 117.152 41.2734C117.02 41.0078 116.809 40.8008 116.52 40.6523C116.238 40.4961 115.871 40.418 115.418 40.418C115.043 40.418 114.719 40.4844 114.445 40.6172C114.172 40.7422 113.961 40.9141 113.812 41.1328C113.672 41.3438 113.602 41.5781 113.602 41.8359C113.602 42.0312 113.641 42.207 113.719 42.3633C113.805 42.5117 113.941 42.6484 114.129 42.7734C114.316 42.8984 114.559 43.0156 114.855 43.125C115.16 43.2266 115.535 43.3203 115.98 43.4062C116.895 43.5938 117.711 43.8398 118.43 44.1445C119.148 44.4414 119.719 44.8477 120.141 45.3633C120.562 45.8711 120.773 46.5391 120.773 47.3672C120.773 47.9297 120.648 48.4453 120.398 48.9141C120.148 49.3828 119.789 49.793 119.32 50.1445C118.852 50.4883 118.289 50.7578 117.633 50.9531C116.984 51.1406 116.254 51.2344 115.441 51.2344C114.262 51.2344 113.262 51.0234 112.441 50.6016C111.629 50.1797 111.012 49.6445 110.59 48.9961C110.176 48.3398 109.969 47.668 109.969 46.9805H113.168C113.184 47.4414 113.301 47.8125 113.52 48.0938C113.746 48.375 114.031 48.5781 114.375 48.7031C114.727 48.8281 115.105 48.8906 115.512 48.8906C115.949 48.8906 116.312 48.832 116.602 48.7148C116.891 48.5898 117.109 48.4258 117.258 48.2227C117.414 48.0117 117.492 47.7695 117.492 47.4961Z" fill="#3B8F49"/>
<path d="M80.7932 13.9271H84.824V3.19545H80.7932C80.5677 3.19545 80.3514 3.28494 80.1919 3.44454C80.0325 3.60397 79.9429 3.82031 79.9429 4.04574V13.0768C79.9429 13.3023 80.0325 13.5186 80.1919 13.6781C80.3514 13.8375 80.5677 13.9271 80.7932 13.9271Z" stroke="#3B8F49" stroke-width="1.71" stroke-linecap="round" stroke-linejoin="round"/>
<path d="M84.824 13.9277L89.1439 20.8328C89.3113 21.1057 89.5465 21.3306 89.8267 21.4856C90.1069 21.6406 90.4224 21.7203 90.7426 21.7172C90.9947 21.7263 91.2461 21.6847 91.482 21.595C91.7178 21.5053 91.9332 21.3692 92.1156 21.1948C92.2979 21.0204 92.4434 20.8112 92.5435 20.5796C92.6436 20.348 92.6963 20.0986 92.6984 19.8463V14.8972H100.165C100.441 14.8882 100.711 14.821 100.959 14.6999C101.208 14.5787 101.427 14.4065 101.604 14.1945C101.781 13.9824 101.91 13.7354 101.985 13.4695C102.059 13.2037 102.076 12.9252 102.036 12.6522L100.675 3.87634C100.617 3.40731 100.389 2.97566 100.036 2.66246C99.6818 2.34926 99.2256 2.17611 98.753 2.1756H87.5962C87.0651 2.17354 86.5409 2.29577 86.0655 2.53286L84.841 3.14503" stroke="#3B8F49" stroke-width="1.71" stroke-linecap="round" stroke-linejoin="round"/>
<path d="M84.824 13.9275V3.19575" stroke="#3B8F49" stroke-width="1.71" stroke-linecap="round" stroke-linejoin="round"/>
</svg>
