<svg width="183" height="172" viewBox="0 0 183 172" fill="none" xmlns="http://www.w3.org/2000/svg">
<path d="M73.5714 67.3928H108.429" stroke="#3B8F49" stroke-width="6" stroke-linecap="round" stroke-linejoin="round"/>
<path d="M91 51.5356V83.2499" stroke="#3B8F49" stroke-width="6" stroke-linecap="round" stroke-linejoin="round"/>
<path d="M138.929 27.75H43.0715C38.2587 27.75 34.3572 31.2998 34.3572 35.6786V99.1071C34.3572 103.486 38.2587 107.036 43.0715 107.036H138.929C143.741 107.036 147.643 103.486 147.643 99.1071V35.6786C147.643 31.2998 143.741 27.75 138.929 27.75Z" stroke="#3B8F49" stroke-width="6" stroke-linecap="round" stroke-linejoin="round"/>
<path d="M117.143 27.7499V11.8928C117.143 9.78999 116.225 7.77336 114.591 6.28646C112.956 4.79956 110.74 3.96423 108.429 3.96423H73.5715C71.2603 3.96423 69.0438 4.79956 67.4095 6.28646C65.7753 7.77336 64.8572 9.78999 64.8572 11.8928V27.7499" stroke="#3B8F49" stroke-width="6" stroke-linecap="round" stroke-linejoin="round"/>
<path d="M75.6797 134.918H71.332V132.176H75.6797C76.3516 132.176 76.8984 132.066 77.3203 131.848C77.7422 131.621 78.0508 131.309 78.2461 130.91C78.4414 130.512 78.5391 130.062 78.5391 129.562C78.5391 129.055 78.4414 128.582 78.2461 128.145C78.0508 127.707 77.7422 127.355 77.3203 127.09C76.8984 126.824 76.3516 126.691 75.6797 126.691H72.5508V141H69.0352V123.938H75.6797C77.0156 123.938 78.1602 124.18 79.1133 124.664C80.0742 125.141 80.8086 125.801 81.3164 126.645C81.8242 127.488 82.0781 128.453 82.0781 129.539C82.0781 130.641 81.8242 131.594 81.3164 132.398C80.8086 133.203 80.0742 133.824 79.1133 134.262C78.1602 134.699 77.0156 134.918 75.6797 134.918ZM90.9961 138.141V132.492C90.9961 132.086 90.9297 131.738 90.7969 131.449C90.6641 131.152 90.457 130.922 90.1758 130.758C89.9023 130.594 89.5469 130.512 89.1094 130.512C88.7344 130.512 88.4102 130.578 88.1367 130.711C87.8633 130.836 87.6523 131.02 87.5039 131.262C87.3555 131.496 87.2812 131.773 87.2812 132.094H83.9062C83.9062 131.555 84.0312 131.043 84.2812 130.559C84.5312 130.074 84.8945 129.648 85.3711 129.281C85.8477 128.906 86.4141 128.613 87.0703 128.402C87.7344 128.191 88.4766 128.086 89.2969 128.086C90.2812 128.086 91.1562 128.25 91.9219 128.578C92.6875 128.906 93.2891 129.398 93.7266 130.055C94.1719 130.711 94.3945 131.531 94.3945 132.516V137.941C94.3945 138.637 94.4375 139.207 94.5234 139.652C94.6094 140.09 94.7344 140.473 94.8984 140.801V141H91.4883C91.3242 140.656 91.1992 140.227 91.1133 139.711C91.0352 139.188 90.9961 138.664 90.9961 138.141ZM91.4414 133.277L91.4648 135.188H89.5781C89.1328 135.188 88.7461 135.238 88.418 135.34C88.0898 135.441 87.8203 135.586 87.6094 135.773C87.3984 135.953 87.2422 136.164 87.1406 136.406C87.0469 136.648 87 136.914 87 137.203C87 137.492 87.0664 137.754 87.1992 137.988C87.332 138.215 87.5234 138.395 87.7734 138.527C88.0234 138.652 88.3164 138.715 88.6523 138.715C89.1602 138.715 89.6016 138.613 89.9766 138.41C90.3516 138.207 90.6406 137.957 90.8438 137.66C91.0547 137.363 91.1641 137.082 91.1719 136.816L92.0625 138.246C91.9375 138.566 91.7656 138.898 91.5469 139.242C91.3359 139.586 91.0664 139.91 90.7383 140.215C90.4102 140.512 90.0156 140.758 89.5547 140.953C89.0938 141.141 88.5469 141.234 87.9141 141.234C87.1094 141.234 86.3789 141.074 85.7227 140.754C85.0742 140.426 84.5586 139.977 84.1758 139.406C83.8008 138.828 83.6133 138.172 83.6133 137.438C83.6133 136.773 83.7383 136.184 83.9883 135.668C84.2383 135.152 84.6055 134.719 85.0898 134.367C85.582 134.008 86.1953 133.738 86.9297 133.559C87.6641 133.371 88.5156 133.277 89.4844 133.277H91.4414ZM100.559 128.32V141H97.1719V128.32H100.559ZM96.9609 125.016C96.9609 124.523 97.1328 124.117 97.4766 123.797C97.8203 123.477 98.2812 123.316 98.8594 123.316C99.4297 123.316 99.8867 123.477 100.23 123.797C100.582 124.117 100.758 124.523 100.758 125.016C100.758 125.508 100.582 125.914 100.23 126.234C99.8867 126.555 99.4297 126.715 98.8594 126.715C98.2812 126.715 97.8203 126.555 97.4766 126.234C97.1328 125.914 96.9609 125.508 96.9609 125.016ZM106.652 131.027V141H103.277V128.32H106.441L106.652 131.027ZM106.16 134.215H105.246C105.246 133.277 105.367 132.434 105.609 131.684C105.852 130.926 106.191 130.281 106.629 129.75C107.066 129.211 107.586 128.801 108.188 128.52C108.797 128.23 109.477 128.086 110.227 128.086C110.82 128.086 111.363 128.172 111.855 128.344C112.348 128.516 112.77 128.789 113.121 129.164C113.48 129.539 113.754 130.035 113.941 130.652C114.137 131.27 114.234 132.023 114.234 132.914V141H110.836V132.902C110.836 132.34 110.758 131.902 110.602 131.59C110.445 131.277 110.215 131.059 109.91 130.934C109.613 130.801 109.246 130.734 108.809 130.734C108.355 130.734 107.961 130.824 107.625 131.004C107.297 131.184 107.023 131.434 106.805 131.754C106.594 132.066 106.434 132.434 106.324 132.855C106.215 133.277 106.16 133.73 106.16 134.215ZM43.0664 151.938H49.4297C50.7344 151.938 51.8555 152.133 52.793 152.523C53.7383 152.914 54.4648 153.492 54.9727 154.258C55.4805 155.023 55.7344 155.965 55.7344 157.082C55.7344 157.996 55.5781 158.781 55.2656 159.438C54.9609 160.086 54.5273 160.629 53.9648 161.066C53.4102 161.496 52.7578 161.84 52.0078 162.098L50.8945 162.684H45.3633L45.3398 159.941H49.4531C50.0703 159.941 50.582 159.832 50.9883 159.613C51.3945 159.395 51.6992 159.09 51.9023 158.699C52.1133 158.309 52.2188 157.855 52.2188 157.34C52.2188 156.793 52.1172 156.32 51.9141 155.922C51.7109 155.523 51.4023 155.219 50.9883 155.008C50.5742 154.797 50.0547 154.691 49.4297 154.691H46.582V169H43.0664V151.938ZM52.6055 169L48.7148 161.395L52.4297 161.371L56.3672 168.836V169H52.6055ZM64.0664 169.234C63.082 169.234 62.1992 169.078 61.418 168.766C60.6367 168.445 59.9727 168.004 59.4258 167.441C58.8867 166.879 58.4727 166.227 58.1836 165.484C57.8945 164.734 57.75 163.938 57.75 163.094V162.625C57.75 161.664 57.8867 160.785 58.1602 159.988C58.4336 159.191 58.8242 158.5 59.332 157.914C59.8477 157.328 60.4727 156.879 61.207 156.566C61.9414 156.246 62.7695 156.086 63.6914 156.086C64.5898 156.086 65.3867 156.234 66.082 156.531C66.7773 156.828 67.3594 157.25 67.8281 157.797C68.3047 158.344 68.6641 159 68.9062 159.766C69.1484 160.523 69.2695 161.367 69.2695 162.297V163.703H59.1914V161.453H65.9531V161.195C65.9531 160.727 65.8672 160.309 65.6953 159.941C65.5312 159.566 65.2812 159.27 64.9453 159.051C64.6094 158.832 64.1797 158.723 63.6562 158.723C63.2109 158.723 62.8281 158.82 62.5078 159.016C62.1875 159.211 61.9258 159.484 61.7227 159.836C61.5273 160.188 61.3789 160.602 61.2773 161.078C61.1836 161.547 61.1367 162.062 61.1367 162.625V163.094C61.1367 163.602 61.207 164.07 61.3477 164.5C61.4961 164.93 61.7031 165.301 61.9688 165.613C62.2422 165.926 62.5703 166.168 62.9531 166.34C63.3438 166.512 63.7852 166.598 64.2773 166.598C64.8867 166.598 65.4531 166.48 65.9766 166.246C66.5078 166.004 66.9648 165.641 67.3477 165.156L68.9883 166.938C68.7227 167.32 68.3594 167.688 67.8984 168.039C67.4453 168.391 66.8984 168.68 66.2578 168.906C65.6172 169.125 64.8867 169.234 64.0664 169.234ZM74.7539 151V169H71.3672V151H74.7539ZM81.1055 156.32V169H77.7188V156.32H81.1055ZM77.5078 153.016C77.5078 152.523 77.6797 152.117 78.0234 151.797C78.3672 151.477 78.8281 151.316 79.4062 151.316C79.9766 151.316 80.4336 151.477 80.7773 151.797C81.1289 152.117 81.3047 152.523 81.3047 153.016C81.3047 153.508 81.1289 153.914 80.7773 154.234C80.4336 154.555 79.9766 154.715 79.4062 154.715C78.8281 154.715 78.3672 154.555 78.0234 154.234C77.6797 153.914 77.5078 153.508 77.5078 153.016ZM89.7305 169.234C88.7461 169.234 87.8633 169.078 87.082 168.766C86.3008 168.445 85.6367 168.004 85.0898 167.441C84.5508 166.879 84.1367 166.227 83.8477 165.484C83.5586 164.734 83.4141 163.938 83.4141 163.094V162.625C83.4141 161.664 83.5508 160.785 83.8242 159.988C84.0977 159.191 84.4883 158.5 84.9961 157.914C85.5117 157.328 86.1367 156.879 86.8711 156.566C87.6055 156.246 88.4336 156.086 89.3555 156.086C90.2539 156.086 91.0508 156.234 91.7461 156.531C92.4414 156.828 93.0234 157.25 93.4922 157.797C93.9688 158.344 94.3281 159 94.5703 159.766C94.8125 160.523 94.9336 161.367 94.9336 162.297V163.703H84.8555V161.453H91.6172V161.195C91.6172 160.727 91.5312 160.309 91.3594 159.941C91.1953 159.566 90.9453 159.27 90.6094 159.051C90.2734 158.832 89.8438 158.723 89.3203 158.723C88.875 158.723 88.4922 158.82 88.1719 159.016C87.8516 159.211 87.5898 159.484 87.3867 159.836C87.1914 160.188 87.043 160.602 86.9414 161.078C86.8477 161.547 86.8008 162.062 86.8008 162.625V163.094C86.8008 163.602 86.8711 164.07 87.0117 164.5C87.1602 164.93 87.3672 165.301 87.6328 165.613C87.9062 165.926 88.2344 166.168 88.6172 166.34C89.0078 166.512 89.4492 166.598 89.9414 166.598C90.5508 166.598 91.1172 166.48 91.6406 166.246C92.1719 166.004 92.6289 165.641 93.0117 165.156L94.6523 166.938C94.3867 167.32 94.0234 167.688 93.5625 168.039C93.1094 168.391 92.5625 168.68 91.9219 168.906C91.2812 169.125 90.5508 169.234 89.7305 169.234ZM101.004 166.539L103.816 156.32H107.344L103.066 169H100.934L101.004 166.539ZM99.0703 156.32L101.895 166.551L101.953 169H99.8086L95.5312 156.32H99.0703ZM114.527 169.234C113.543 169.234 112.66 169.078 111.879 168.766C111.098 168.445 110.434 168.004 109.887 167.441C109.348 166.879 108.934 166.227 108.645 165.484C108.355 164.734 108.211 163.938 108.211 163.094V162.625C108.211 161.664 108.348 160.785 108.621 159.988C108.895 159.191 109.285 158.5 109.793 157.914C110.309 157.328 110.934 156.879 111.668 156.566C112.402 156.246 113.23 156.086 114.152 156.086C115.051 156.086 115.848 156.234 116.543 156.531C117.238 156.828 117.82 157.25 118.289 157.797C118.766 158.344 119.125 159 119.367 159.766C119.609 160.523 119.73 161.367 119.73 162.297V163.703H109.652V161.453H116.414V161.195C116.414 160.727 116.328 160.309 116.156 159.941C115.992 159.566 115.742 159.27 115.406 159.051C115.07 158.832 114.641 158.723 114.117 158.723C113.672 158.723 113.289 158.82 112.969 159.016C112.648 159.211 112.387 159.484 112.184 159.836C111.988 160.188 111.84 160.602 111.738 161.078C111.645 161.547 111.598 162.062 111.598 162.625V163.094C111.598 163.602 111.668 164.07 111.809 164.5C111.957 164.93 112.164 165.301 112.43 165.613C112.703 165.926 113.031 166.168 113.414 166.34C113.805 166.512 114.246 166.598 114.738 166.598C115.348 166.598 115.914 166.48 116.438 166.246C116.969 166.004 117.426 165.641 117.809 165.156L119.449 166.938C119.184 167.32 118.82 167.688 118.359 168.039C117.906 168.391 117.359 168.68 116.719 168.906C116.078 169.125 115.348 169.234 114.527 169.234ZM125.027 159.086V169H121.652V156.32H124.828L125.027 159.086ZM128.848 156.238L128.789 159.367C128.625 159.344 128.426 159.324 128.191 159.309C127.965 159.285 127.758 159.273 127.57 159.273C127.094 159.273 126.68 159.336 126.328 159.461C125.984 159.578 125.695 159.754 125.461 159.988C125.234 160.223 125.062 160.508 124.945 160.844C124.836 161.18 124.773 161.562 124.758 161.992L124.078 161.781C124.078 160.961 124.16 160.207 124.324 159.52C124.488 158.824 124.727 158.219 125.039 157.703C125.359 157.188 125.75 156.789 126.211 156.508C126.672 156.227 127.199 156.086 127.793 156.086C127.98 156.086 128.172 156.102 128.367 156.133C128.562 156.156 128.723 156.191 128.848 156.238ZM137.297 165.496C137.297 165.254 137.227 165.035 137.086 164.84C136.945 164.645 136.684 164.465 136.301 164.301C135.926 164.129 135.383 163.973 134.672 163.832C134.031 163.691 133.434 163.516 132.879 163.305C132.332 163.086 131.855 162.824 131.449 162.52C131.051 162.215 130.738 161.855 130.512 161.441C130.285 161.02 130.172 160.539 130.172 160C130.172 159.469 130.285 158.969 130.512 158.5C130.746 158.031 131.078 157.617 131.508 157.258C131.945 156.891 132.477 156.605 133.102 156.402C133.734 156.191 134.445 156.086 135.234 156.086C136.336 156.086 137.281 156.262 138.07 156.613C138.867 156.965 139.477 157.449 139.898 158.066C140.328 158.676 140.543 159.371 140.543 160.152H137.168C137.168 159.824 137.098 159.531 136.957 159.273C136.824 159.008 136.613 158.801 136.324 158.652C136.043 158.496 135.676 158.418 135.223 158.418C134.848 158.418 134.523 158.484 134.25 158.617C133.977 158.742 133.766 158.914 133.617 159.133C133.477 159.344 133.406 159.578 133.406 159.836C133.406 160.031 133.445 160.207 133.523 160.363C133.609 160.512 133.746 160.648 133.934 160.773C134.121 160.898 134.363 161.016 134.66 161.125C134.965 161.227 135.34 161.32 135.785 161.406C136.699 161.594 137.516 161.84 138.234 162.145C138.953 162.441 139.523 162.848 139.945 163.363C140.367 163.871 140.578 164.539 140.578 165.367C140.578 165.93 140.453 166.445 140.203 166.914C139.953 167.383 139.594 167.793 139.125 168.145C138.656 168.488 138.094 168.758 137.438 168.953C136.789 169.141 136.059 169.234 135.246 169.234C134.066 169.234 133.066 169.023 132.246 168.602C131.434 168.18 130.816 167.645 130.395 166.996C129.98 166.34 129.773 165.668 129.773 164.98H132.973C132.988 165.441 133.105 165.812 133.324 166.094C133.551 166.375 133.836 166.578 134.18 166.703C134.531 166.828 134.91 166.891 135.316 166.891C135.754 166.891 136.117 166.832 136.406 166.715C136.695 166.59 136.914 166.426 137.062 166.223C137.219 166.012 137.297 165.77 137.297 165.496Z" fill="#3B8F49"/>
</svg>
