<svg width="158" height="184" viewBox="0 0 158 184" fill="none" xmlns="http://www.w3.org/2000/svg">
<path d="M126.964 31.75H24.0357C18.8679 31.75 14.6786 35.9394 14.6786 41.1071V115.964C14.6786 121.132 18.8679 125.321 24.0357 125.321H126.964C132.132 125.321 136.321 121.132 136.321 115.964V41.1071C136.321 35.9394 132.132 31.75 126.964 31.75Z" stroke="#3B8F49" stroke-width="6" stroke-linecap="round" stroke-linejoin="round"/>
<path d="M56.7857 3.67859H94.2143C96.696 3.67859 99.076 4.66443 100.831 6.41923C102.586 8.17404 103.571 10.554 103.571 13.0357V31.75H47.4286V13.0357C47.4286 10.554 48.4145 8.17404 50.1692 6.41923C51.924 4.66443 54.304 3.67859 56.7857 3.67859Z" stroke="#3B8F49" stroke-width="6" stroke-linecap="round" stroke-linejoin="round"/>
<path d="M42.75 64.5H108.25" stroke="#3B8F49" stroke-width="6" stroke-linecap="round" stroke-linejoin="round"/>
<path d="M42.75 92.5714H108.25" stroke="#3B8F49" stroke-width="6" stroke-linecap="round" stroke-linejoin="round"/>
<path d="M38.4648 148.918H34.1172V146.176H38.4648C39.1367 146.176 39.6836 146.066 40.1055 145.848C40.5273 145.621 40.8359 145.309 41.0312 144.91C41.2266 144.512 41.3242 144.062 41.3242 143.562C41.3242 143.055 41.2266 142.582 41.0312 142.145C40.8359 141.707 40.5273 141.355 40.1055 141.09C39.6836 140.824 39.1367 140.691 38.4648 140.691H35.3359V155H31.8203V137.938H38.4648C39.8008 137.938 40.9453 138.18 41.8984 138.664C42.8594 139.141 43.5938 139.801 44.1016 140.645C44.6094 141.488 44.8633 142.453 44.8633 143.539C44.8633 144.641 44.6094 145.594 44.1016 146.398C43.5938 147.203 42.8594 147.824 41.8984 148.262C40.9453 148.699 39.8008 148.918 38.4648 148.918ZM50.4531 145.086V155H47.0781V142.32H50.2539L50.4531 145.086ZM54.2734 142.238L54.2148 145.367C54.0508 145.344 53.8516 145.324 53.6172 145.309C53.3906 145.285 53.1836 145.273 52.9961 145.273C52.5195 145.273 52.1055 145.336 51.7539 145.461C51.4102 145.578 51.1211 145.754 50.8867 145.988C50.6602 146.223 50.4883 146.508 50.3711 146.844C50.2617 147.18 50.1992 147.562 50.1836 147.992L49.5039 147.781C49.5039 146.961 49.5859 146.207 49.75 145.52C49.9141 144.824 50.1523 144.219 50.4648 143.703C50.7852 143.188 51.1758 142.789 51.6367 142.508C52.0977 142.227 52.625 142.086 53.2188 142.086C53.4062 142.086 53.5977 142.102 53.793 142.133C53.9883 142.156 54.1484 142.191 54.2734 142.238ZM54.9766 148.789V148.543C54.9766 147.613 55.1094 146.758 55.375 145.977C55.6406 145.188 56.0273 144.504 56.5352 143.926C57.043 143.348 57.668 142.898 58.4102 142.578C59.1523 142.25 60.0039 142.086 60.9648 142.086C61.9258 142.086 62.7812 142.25 63.5312 142.578C64.2812 142.898 64.9102 143.348 65.418 143.926C65.9336 144.504 66.3242 145.188 66.5898 145.977C66.8555 146.758 66.9883 147.613 66.9883 148.543V148.789C66.9883 149.711 66.8555 150.566 66.5898 151.355C66.3242 152.137 65.9336 152.82 65.418 153.406C64.9102 153.984 64.2852 154.434 63.543 154.754C62.8008 155.074 61.9492 155.234 60.9883 155.234C60.0273 155.234 59.1719 155.074 58.4219 154.754C57.6797 154.434 57.0508 153.984 56.5352 153.406C56.0273 152.82 55.6406 152.137 55.375 151.355C55.1094 150.566 54.9766 149.711 54.9766 148.789ZM58.3516 148.543V148.789C58.3516 149.32 58.3984 149.816 58.4922 150.277C58.5859 150.738 58.7344 151.145 58.9375 151.496C59.1484 151.84 59.4219 152.109 59.7578 152.305C60.0938 152.5 60.5039 152.598 60.9883 152.598C61.457 152.598 61.8594 152.5 62.1953 152.305C62.5312 152.109 62.8008 151.84 63.0039 151.496C63.207 151.145 63.3555 150.738 63.4492 150.277C63.5508 149.816 63.6016 149.32 63.6016 148.789V148.543C63.6016 148.027 63.5508 147.543 63.4492 147.09C63.3555 146.629 63.2031 146.223 62.9922 145.871C62.7891 145.512 62.5195 145.23 62.1836 145.027C61.8477 144.824 61.4414 144.723 60.9648 144.723C60.4883 144.723 60.082 144.824 59.7461 145.027C59.418 145.23 59.1484 145.512 58.9375 145.871C58.7344 146.223 58.5859 146.629 58.4922 147.09C58.3984 147.543 58.3516 148.027 58.3516 148.543ZM76.5508 152.234V137H79.9492V155H76.8906L76.5508 152.234ZM68.5352 148.812V148.566C68.5352 147.598 68.6445 146.719 68.8633 145.93C69.082 145.133 69.4023 144.449 69.8242 143.879C70.2461 143.309 70.7656 142.867 71.3828 142.555C72 142.242 72.7031 142.086 73.4922 142.086C74.2344 142.086 74.8828 142.242 75.4375 142.555C76 142.867 76.4766 143.312 76.8672 143.891C77.2656 144.461 77.5859 145.137 77.8281 145.918C78.0703 146.691 78.2461 147.539 78.3555 148.461V149C78.2461 149.883 78.0703 150.703 77.8281 151.461C77.5859 152.219 77.2656 152.883 76.8672 153.453C76.4766 154.016 76 154.453 75.4375 154.766C74.875 155.078 74.2188 155.234 73.4688 155.234C72.6797 155.234 71.9766 155.074 71.3594 154.754C70.75 154.434 70.2344 153.984 69.8125 153.406C69.3984 152.828 69.082 152.148 68.8633 151.367C68.6445 150.586 68.5352 149.734 68.5352 148.812ZM71.9102 148.566V148.812C71.9102 149.336 71.9492 149.824 72.0273 150.277C72.1133 150.73 72.25 151.133 72.4375 151.484C72.6328 151.828 72.8828 152.098 73.1875 152.293C73.5 152.48 73.8789 152.574 74.3242 152.574C74.9023 152.574 75.3789 152.445 75.7539 152.188C76.1289 151.922 76.4141 151.559 76.6094 151.098C76.8125 150.637 76.9297 150.105 76.9609 149.504V147.969C76.9375 147.477 76.8672 147.035 76.75 146.645C76.6406 146.246 76.4766 145.906 76.2578 145.625C76.0469 145.344 75.7812 145.125 75.4609 144.969C75.1484 144.812 74.7773 144.734 74.3477 144.734C73.9102 144.734 73.5352 144.836 73.2227 145.039C72.9102 145.234 72.6562 145.504 72.4609 145.848C72.2734 146.191 72.1328 146.598 72.0391 147.066C71.9531 147.527 71.9102 148.027 71.9102 148.566ZM90.0859 151.965V142.32H93.4609V155H90.2852L90.0859 151.965ZM90.4609 149.363L91.457 149.34C91.457 150.184 91.3594 150.969 91.1641 151.695C90.9688 152.414 90.6758 153.039 90.2852 153.57C89.8945 154.094 89.4023 154.504 88.8086 154.801C88.2148 155.09 87.5156 155.234 86.7109 155.234C86.0938 155.234 85.5234 155.148 85 154.977C84.4844 154.797 84.0391 154.52 83.6641 154.145C83.2969 153.762 83.0078 153.273 82.7969 152.68C82.5938 152.078 82.4922 151.355 82.4922 150.512V142.32H85.8672V150.535C85.8672 150.91 85.9102 151.227 85.9961 151.484C86.0898 151.742 86.2188 151.953 86.3828 152.117C86.5469 152.281 86.7383 152.398 86.957 152.469C87.1836 152.539 87.4336 152.574 87.707 152.574C88.4023 152.574 88.9492 152.434 89.3477 152.152C89.7539 151.871 90.0391 151.488 90.2031 151.004C90.375 150.512 90.4609 149.965 90.4609 149.363ZM101.277 152.598C101.691 152.598 102.059 152.52 102.379 152.363C102.699 152.199 102.949 151.973 103.129 151.684C103.316 151.387 103.414 151.039 103.422 150.641H106.598C106.59 151.531 106.352 152.324 105.883 153.02C105.414 153.707 104.785 154.25 103.996 154.648C103.207 155.039 102.324 155.234 101.348 155.234C100.363 155.234 99.5039 155.07 98.7695 154.742C98.043 154.414 97.4375 153.961 96.9531 153.383C96.4688 152.797 96.1055 152.117 95.8633 151.344C95.6211 150.562 95.5 149.727 95.5 148.836V148.496C95.5 147.598 95.6211 146.762 95.8633 145.988C96.1055 145.207 96.4688 144.527 96.9531 143.949C97.4375 143.363 98.043 142.906 98.7695 142.578C99.4961 142.25 100.348 142.086 101.324 142.086C102.363 142.086 103.273 142.285 104.055 142.684C104.844 143.082 105.461 143.652 105.906 144.395C106.359 145.129 106.59 146 106.598 147.008H103.422C103.414 146.586 103.324 146.203 103.152 145.859C102.988 145.516 102.746 145.242 102.426 145.039C102.113 144.828 101.727 144.723 101.266 144.723C100.773 144.723 100.371 144.828 100.059 145.039C99.7461 145.242 99.5039 145.523 99.332 145.883C99.1602 146.234 99.0391 146.637 98.9688 147.09C98.9062 147.535 98.875 148.004 98.875 148.496V148.836C98.875 149.328 98.9062 149.801 98.9688 150.254C99.0312 150.707 99.1484 151.109 99.3203 151.461C99.5 151.812 99.7461 152.09 100.059 152.293C100.371 152.496 100.777 152.598 101.277 152.598ZM114.766 142.32V144.711H107.383V142.32H114.766ZM109.211 139.191H112.586V151.18C112.586 151.547 112.633 151.828 112.727 152.023C112.828 152.219 112.977 152.355 113.172 152.434C113.367 152.504 113.613 152.539 113.91 152.539C114.121 152.539 114.309 152.531 114.473 152.516C114.645 152.492 114.789 152.469 114.906 152.445L114.918 154.93C114.629 155.023 114.316 155.098 113.98 155.152C113.645 155.207 113.273 155.234 112.867 155.234C112.125 155.234 111.477 155.113 110.922 154.871C110.375 154.621 109.953 154.223 109.656 153.676C109.359 153.129 109.211 152.41 109.211 151.52V139.191ZM123.543 151.496C123.543 151.254 123.473 151.035 123.332 150.84C123.191 150.645 122.93 150.465 122.547 150.301C122.172 150.129 121.629 149.973 120.918 149.832C120.277 149.691 119.68 149.516 119.125 149.305C118.578 149.086 118.102 148.824 117.695 148.52C117.297 148.215 116.984 147.855 116.758 147.441C116.531 147.02 116.418 146.539 116.418 146C116.418 145.469 116.531 144.969 116.758 144.5C116.992 144.031 117.324 143.617 117.754 143.258C118.191 142.891 118.723 142.605 119.348 142.402C119.98 142.191 120.691 142.086 121.48 142.086C122.582 142.086 123.527 142.262 124.316 142.613C125.113 142.965 125.723 143.449 126.145 144.066C126.574 144.676 126.789 145.371 126.789 146.152H123.414C123.414 145.824 123.344 145.531 123.203 145.273C123.07 145.008 122.859 144.801 122.57 144.652C122.289 144.496 121.922 144.418 121.469 144.418C121.094 144.418 120.77 144.484 120.496 144.617C120.223 144.742 120.012 144.914 119.863 145.133C119.723 145.344 119.652 145.578 119.652 145.836C119.652 146.031 119.691 146.207 119.77 146.363C119.855 146.512 119.992 146.648 120.18 146.773C120.367 146.898 120.609 147.016 120.906 147.125C121.211 147.227 121.586 147.32 122.031 147.406C122.945 147.594 123.762 147.84 124.48 148.145C125.199 148.441 125.77 148.848 126.191 149.363C126.613 149.871 126.824 150.539 126.824 151.367C126.824 151.93 126.699 152.445 126.449 152.914C126.199 153.383 125.84 153.793 125.371 154.145C124.902 154.488 124.34 154.758 123.684 154.953C123.035 155.141 122.305 155.234 121.492 155.234C120.312 155.234 119.312 155.023 118.492 154.602C117.68 154.18 117.062 153.645 116.641 152.996C116.227 152.34 116.02 151.668 116.02 150.98H119.219C119.234 151.441 119.352 151.812 119.57 152.094C119.797 152.375 120.082 152.578 120.426 152.703C120.777 152.828 121.156 152.891 121.562 152.891C122 152.891 122.363 152.832 122.652 152.715C122.941 152.59 123.16 152.426 123.309 152.223C123.465 152.012 123.543 151.77 123.543 151.496ZM25.5742 173.871L28.8555 171.75C29.3398 171.43 29.6641 171.121 29.8281 170.824C29.9922 170.527 30.0742 170.195 30.0742 169.828C30.0742 169.461 29.9375 169.121 29.6641 168.809C29.3906 168.488 29.0078 168.328 28.5156 168.328C28.1641 168.328 27.8672 168.41 27.625 168.574C27.3828 168.73 27.1992 168.941 27.0742 169.207C26.957 169.473 26.8984 169.77 26.8984 170.098C26.8984 170.449 26.9922 170.809 27.1797 171.176C27.3672 171.535 27.6211 171.918 27.9414 172.324C28.2617 172.723 28.6172 173.156 29.0078 173.625L37.0586 183H33.2266L26.6641 175.406C26.1094 174.719 25.625 174.09 25.2109 173.52C24.7969 172.941 24.4727 172.379 24.2383 171.832C24.0039 171.285 23.8867 170.723 23.8867 170.145C23.8867 169.254 24.0781 168.477 24.4609 167.812C24.8438 167.141 25.3828 166.621 26.0781 166.254C26.7734 165.879 27.5898 165.691 28.5273 165.691C29.4102 165.691 30.1758 165.875 30.8242 166.242C31.4727 166.602 31.9727 167.078 32.3242 167.672C32.6836 168.266 32.8633 168.918 32.8633 169.629C32.8633 170.16 32.7656 170.652 32.5703 171.105C32.375 171.551 32.1055 171.965 31.7617 172.348C31.418 172.723 31.0234 173.07 30.5781 173.391L26.8398 176.051C26.5508 176.316 26.332 176.578 26.1836 176.836C26.0352 177.094 25.9336 177.34 25.8789 177.574C25.8242 177.801 25.7969 178.02 25.7969 178.23C25.7969 178.684 25.8945 179.09 26.0898 179.449C26.2852 179.809 26.5586 180.09 26.9102 180.293C27.2617 180.496 27.6719 180.598 28.1406 180.598C28.7812 180.598 29.4023 180.457 30.0039 180.176C30.6055 179.895 31.1445 179.492 31.6211 178.969C32.0977 178.438 32.4766 177.809 32.7578 177.082C33.0391 176.355 33.1797 175.555 33.1797 174.68H36.0391C36.0391 175.555 35.9531 176.387 35.7812 177.176C35.6094 177.957 35.332 178.684 34.9492 179.355C34.5664 180.02 34.0586 180.609 33.4258 181.125C33.3789 181.164 33.3125 181.223 33.2266 181.301C33.1484 181.371 33.082 181.426 33.0273 181.465C32.2773 182.066 31.4961 182.516 30.6836 182.812C29.8711 183.102 28.9648 183.246 27.9648 183.246C26.8242 183.246 25.8359 183.039 25 182.625C24.1719 182.211 23.5312 181.641 23.0781 180.914C22.6328 180.188 22.4102 179.355 22.4102 178.418C22.4102 177.73 22.543 177.133 22.8086 176.625C23.082 176.109 23.457 175.633 23.9336 175.195C24.4102 174.758 24.957 174.316 25.5742 173.871ZM53.7578 178.535C53.7578 178.23 53.7109 177.957 53.6172 177.715C53.5312 177.465 53.3672 177.238 53.125 177.035C52.8828 176.824 52.543 176.617 52.1055 176.414C51.668 176.211 51.1016 176 50.4062 175.781C49.6328 175.531 48.8984 175.25 48.2031 174.938C47.5156 174.625 46.9062 174.262 46.375 173.848C45.8516 173.426 45.4375 172.938 45.1328 172.383C44.8359 171.828 44.6875 171.184 44.6875 170.449C44.6875 169.738 44.8438 169.094 45.1562 168.516C45.4688 167.93 45.9062 167.43 46.4688 167.016C47.0312 166.594 47.6953 166.27 48.4609 166.043C49.2344 165.816 50.082 165.703 51.0039 165.703C52.2617 165.703 53.3594 165.93 54.2969 166.383C55.2344 166.836 55.9609 167.457 56.4766 168.246C57 169.035 57.2617 169.938 57.2617 170.953H53.7695C53.7695 170.453 53.6641 170.016 53.4531 169.641C53.25 169.258 52.9375 168.957 52.5156 168.738C52.1016 168.52 51.5781 168.41 50.9453 168.41C50.3359 168.41 49.8281 168.504 49.4219 168.691C49.0156 168.871 48.7109 169.117 48.5078 169.43C48.3047 169.734 48.2031 170.078 48.2031 170.461C48.2031 170.75 48.2734 171.012 48.4141 171.246C48.5625 171.48 48.7812 171.699 49.0703 171.902C49.3594 172.105 49.7148 172.297 50.1367 172.477C50.5586 172.656 51.0469 172.832 51.6016 173.004C52.5312 173.285 53.3477 173.602 54.0508 173.953C54.7617 174.305 55.3555 174.699 55.832 175.137C56.3086 175.574 56.668 176.07 56.9102 176.625C57.1523 177.18 57.2734 177.809 57.2734 178.512C57.2734 179.254 57.1289 179.918 56.8398 180.504C56.5508 181.09 56.1328 181.586 55.5859 181.992C55.0391 182.398 54.3867 182.707 53.6289 182.918C52.8711 183.129 52.0234 183.234 51.0859 183.234C50.2422 183.234 49.4102 183.125 48.5898 182.906C47.7695 182.68 47.0234 182.34 46.3516 181.887C45.6875 181.434 45.1562 180.855 44.7578 180.152C44.3594 179.449 44.1602 178.617 44.1602 177.656H47.6875C47.6875 178.188 47.7695 178.637 47.9336 179.004C48.0977 179.371 48.3281 179.668 48.625 179.895C48.9297 180.121 49.2891 180.285 49.7031 180.387C50.125 180.488 50.5859 180.539 51.0859 180.539C51.6953 180.539 52.1953 180.453 52.5859 180.281C52.9844 180.109 53.2773 179.871 53.4648 179.566C53.6602 179.262 53.7578 178.918 53.7578 178.535ZM65.2891 183.234C64.3047 183.234 63.4219 183.078 62.6406 182.766C61.8594 182.445 61.1953 182.004 60.6484 181.441C60.1094 180.879 59.6953 180.227 59.4062 179.484C59.1172 178.734 58.9727 177.938 58.9727 177.094V176.625C58.9727 175.664 59.1094 174.785 59.3828 173.988C59.6562 173.191 60.0469 172.5 60.5547 171.914C61.0703 171.328 61.6953 170.879 62.4297 170.566C63.1641 170.246 63.9922 170.086 64.9141 170.086C65.8125 170.086 66.6094 170.234 67.3047 170.531C68 170.828 68.582 171.25 69.0508 171.797C69.5273 172.344 69.8867 173 70.1289 173.766C70.3711 174.523 70.4922 175.367 70.4922 176.297V177.703H60.4141V175.453H67.1758V175.195C67.1758 174.727 67.0898 174.309 66.918 173.941C66.7539 173.566 66.5039 173.27 66.168 173.051C65.832 172.832 65.4023 172.723 64.8789 172.723C64.4336 172.723 64.0508 172.82 63.7305 173.016C63.4102 173.211 63.1484 173.484 62.9453 173.836C62.75 174.188 62.6016 174.602 62.5 175.078C62.4062 175.547 62.3594 176.062 62.3594 176.625V177.094C62.3594 177.602 62.4297 178.07 62.5703 178.5C62.7188 178.93 62.9258 179.301 63.1914 179.613C63.4648 179.926 63.793 180.168 64.1758 180.34C64.5664 180.512 65.0078 180.598 65.5 180.598C66.1094 180.598 66.6758 180.48 67.1992 180.246C67.7305 180.004 68.1875 179.641 68.5703 179.156L70.2109 180.938C69.9453 181.32 69.582 181.688 69.1211 182.039C68.668 182.391 68.1211 182.68 67.4805 182.906C66.8398 183.125 66.1094 183.234 65.2891 183.234ZM75.7891 173.086V183H72.4141V170.32H75.5898L75.7891 173.086ZM79.6094 170.238L79.5508 173.367C79.3867 173.344 79.1875 173.324 78.9531 173.309C78.7266 173.285 78.5195 173.273 78.332 173.273C77.8555 173.273 77.4414 173.336 77.0898 173.461C76.7461 173.578 76.457 173.754 76.2227 173.988C75.9961 174.223 75.8242 174.508 75.707 174.844C75.5977 175.18 75.5352 175.562 75.5195 175.992L74.8398 175.781C74.8398 174.961 74.9219 174.207 75.0859 173.52C75.25 172.824 75.4883 172.219 75.8008 171.703C76.1211 171.188 76.5117 170.789 76.9727 170.508C77.4336 170.227 77.9609 170.086 78.5547 170.086C78.7422 170.086 78.9336 170.102 79.1289 170.133C79.3242 170.156 79.4844 170.191 79.6094 170.238ZM85.7266 180.539L88.5391 170.32H92.0664L87.7891 183H85.6562L85.7266 180.539ZM83.793 170.32L86.6172 180.551L86.6758 183H84.5312L80.2539 170.32H83.793ZM97.1406 170.32V183H93.7539V170.32H97.1406ZM93.543 167.016C93.543 166.523 93.7148 166.117 94.0586 165.797C94.4023 165.477 94.8633 165.316 95.4414 165.316C96.0117 165.316 96.4688 165.477 96.8125 165.797C97.1641 166.117 97.3398 166.523 97.3398 167.016C97.3398 167.508 97.1641 167.914 96.8125 168.234C96.4688 168.555 96.0117 168.715 95.4414 168.715C94.8633 168.715 94.4023 168.555 94.0586 168.234C93.7148 167.914 93.543 167.508 93.543 167.016ZM105.168 180.598C105.582 180.598 105.949 180.52 106.27 180.363C106.59 180.199 106.84 179.973 107.02 179.684C107.207 179.387 107.305 179.039 107.312 178.641H110.488C110.48 179.531 110.242 180.324 109.773 181.02C109.305 181.707 108.676 182.25 107.887 182.648C107.098 183.039 106.215 183.234 105.238 183.234C104.254 183.234 103.395 183.07 102.66 182.742C101.934 182.414 101.328 181.961 100.844 181.383C100.359 180.797 99.9961 180.117 99.7539 179.344C99.5117 178.562 99.3906 177.727 99.3906 176.836V176.496C99.3906 175.598 99.5117 174.762 99.7539 173.988C99.9961 173.207 100.359 172.527 100.844 171.949C101.328 171.363 101.934 170.906 102.66 170.578C103.387 170.25 104.238 170.086 105.215 170.086C106.254 170.086 107.164 170.285 107.945 170.684C108.734 171.082 109.352 171.652 109.797 172.395C110.25 173.129 110.48 174 110.488 175.008H107.312C107.305 174.586 107.215 174.203 107.043 173.859C106.879 173.516 106.637 173.242 106.316 173.039C106.004 172.828 105.617 172.723 105.156 172.723C104.664 172.723 104.262 172.828 103.949 173.039C103.637 173.242 103.395 173.523 103.223 173.883C103.051 174.234 102.93 174.637 102.859 175.09C102.797 175.535 102.766 176.004 102.766 176.496V176.836C102.766 177.328 102.797 177.801 102.859 178.254C102.922 178.707 103.039 179.109 103.211 179.461C103.391 179.812 103.637 180.09 103.949 180.293C104.262 180.496 104.668 180.598 105.168 180.598ZM118.281 183.234C117.297 183.234 116.414 183.078 115.633 182.766C114.852 182.445 114.188 182.004 113.641 181.441C113.102 180.879 112.688 180.227 112.398 179.484C112.109 178.734 111.965 177.938 111.965 177.094V176.625C111.965 175.664 112.102 174.785 112.375 173.988C112.648 173.191 113.039 172.5 113.547 171.914C114.062 171.328 114.688 170.879 115.422 170.566C116.156 170.246 116.984 170.086 117.906 170.086C118.805 170.086 119.602 170.234 120.297 170.531C120.992 170.828 121.574 171.25 122.043 171.797C122.52 172.344 122.879 173 123.121 173.766C123.363 174.523 123.484 175.367 123.484 176.297V177.703H113.406V175.453H120.168V175.195C120.168 174.727 120.082 174.309 119.91 173.941C119.746 173.566 119.496 173.27 119.16 173.051C118.824 172.832 118.395 172.723 117.871 172.723C117.426 172.723 117.043 172.82 116.723 173.016C116.402 173.211 116.141 173.484 115.938 173.836C115.742 174.188 115.594 174.602 115.492 175.078C115.398 175.547 115.352 176.062 115.352 176.625V177.094C115.352 177.602 115.422 178.07 115.562 178.5C115.711 178.93 115.918 179.301 116.184 179.613C116.457 179.926 116.785 180.168 117.168 180.34C117.559 180.512 118 180.598 118.492 180.598C119.102 180.598 119.668 180.48 120.191 180.246C120.723 180.004 121.18 179.641 121.562 179.156L123.203 180.938C122.938 181.32 122.574 181.688 122.113 182.039C121.66 182.391 121.113 182.68 120.473 182.906C119.832 183.125 119.102 183.234 118.281 183.234ZM132.262 179.496C132.262 179.254 132.191 179.035 132.051 178.84C131.91 178.645 131.648 178.465 131.266 178.301C130.891 178.129 130.348 177.973 129.637 177.832C128.996 177.691 128.398 177.516 127.844 177.305C127.297 177.086 126.82 176.824 126.414 176.52C126.016 176.215 125.703 175.855 125.477 175.441C125.25 175.02 125.137 174.539 125.137 174C125.137 173.469 125.25 172.969 125.477 172.5C125.711 172.031 126.043 171.617 126.473 171.258C126.91 170.891 127.441 170.605 128.066 170.402C128.699 170.191 129.41 170.086 130.199 170.086C131.301 170.086 132.246 170.262 133.035 170.613C133.832 170.965 134.441 171.449 134.863 172.066C135.293 172.676 135.508 173.371 135.508 174.152H132.133C132.133 173.824 132.062 173.531 131.922 173.273C131.789 173.008 131.578 172.801 131.289 172.652C131.008 172.496 130.641 172.418 130.188 172.418C129.812 172.418 129.488 172.484 129.215 172.617C128.941 172.742 128.73 172.914 128.582 173.133C128.441 173.344 128.371 173.578 128.371 173.836C128.371 174.031 128.41 174.207 128.488 174.363C128.574 174.512 128.711 174.648 128.898 174.773C129.086 174.898 129.328 175.016 129.625 175.125C129.93 175.227 130.305 175.32 130.75 175.406C131.664 175.594 132.48 175.84 133.199 176.145C133.918 176.441 134.488 176.848 134.91 177.363C135.332 177.871 135.543 178.539 135.543 179.367C135.543 179.93 135.418 180.445 135.168 180.914C134.918 181.383 134.559 181.793 134.09 182.145C133.621 182.488 133.059 182.758 132.402 182.953C131.754 183.141 131.023 183.234 130.211 183.234C129.031 183.234 128.031 183.023 127.211 182.602C126.398 182.18 125.781 181.645 125.359 180.996C124.945 180.34 124.738 179.668 124.738 178.98H127.938C127.953 179.441 128.07 179.812 128.289 180.094C128.516 180.375 128.801 180.578 129.145 180.703C129.496 180.828 129.875 180.891 130.281 180.891C130.719 180.891 131.082 180.832 131.371 180.715C131.66 180.59 131.879 180.426 132.027 180.223C132.184 180.012 132.262 179.77 132.262 179.496Z" fill="#3B8F49"/>
</svg>
