<svg width="931" height="926" viewBox="0 0 931 926" fill="none" xmlns="http://www.w3.org/2000/svg">
<path d="M931 459L905.5 473.722L905.5 444.278L931 459Z" fill="#3B8F49"/>
<line x1="506" y1="459.5" x2="921" y2="459.5" stroke="#3B8F49" stroke-width="5"/>
<line x1="1.76777" y1="2.23223" x2="434.768" y2="435.232" stroke="#3B8F49" stroke-width="5"/>
<line x1="4.95233" y1="923.756" x2="444.952" y2="483.756" stroke="#3B8F49" stroke-width="5"/>
<path d="M504.661 478.327V442.159H439.337V478.327C439.337 481.746 442.109 484.518 445.528 484.518H498.47C501.89 484.518 504.661 481.746 504.661 478.327Z" stroke="#3B8F49" stroke-width="4" stroke-linecap="round" stroke-linejoin="round"/>
<path d="M472 484.517V442.147" stroke="#3B8F49" stroke-width="4" stroke-linecap="round" stroke-linejoin="round"/>
<path d="M510 432.249V435.968C510 439.388 507.228 442.159 503.809 442.159H440.191C436.772 442.159 434 439.388 434 435.968V432.249C434 428.83 436.772 426.058 440.191 426.058H503.809C507.228 426.058 510 428.83 510 432.249Z" stroke="#3B8F49" stroke-width="4" stroke-linecap="round" stroke-linejoin="round"/>
<path d="M472.001 426.057C472.001 420.64 465.681 408 456.201 408C440.778 408 446.396 426.057 453.778 426.057" stroke="#3B8F49" stroke-width="4" stroke-linecap="round" stroke-linejoin="round"/>
<path d="M472 426.057C472 420.64 478.32 408 487.8 408C503.223 408 497.604 426.057 490.223 426.057" stroke="#3B8F49" stroke-width="4" stroke-linecap="round" stroke-linejoin="round"/>
</svg>
