<svg width="725" height="710" viewBox="0 0 725 710" fill="none" xmlns="http://www.w3.org/2000/svg">
<path d="M2.22928e-06 358L25.5 343.278L25.5 372.722L2.22928e-06 358Z" fill="#3B8F49"/>
<line x1="337.382" y1="357.377" x2="19.6561" y2="357.376" stroke="#3B8F49" stroke-width="5"/>
<line x1="723.011" y1="707.292" x2="367.77" y2="352.051" stroke="#3B8F49" stroke-width="5"/>
<line x1="721.402" y1="1.76783" x2="395.254" y2="327.916" stroke="#3B8F49" stroke-width="5"/>
<ellipse cx="369.155" cy="354.475" rx="31.7726" ry="30.6242" fill="white"/>
<path d="M356.523 392.708L356.523 380.075L343.89 380.075L343.89 367.443L334.416 367.443L340.732 348.494C340.732 340.956 343.727 333.726 349.057 328.396C354.387 323.066 361.617 320.071 369.155 320.071H375.471C383.01 320.071 390.239 323.066 395.569 328.396C400.9 333.726 403.894 340.956 403.894 348.494V351.652C403.895 356.549 402.753 361.378 400.56 365.756C398.367 370.134 395.183 373.941 391.262 376.873L391.262 392.708" stroke="#3B8F49" stroke-width="2" stroke-linejoin="round"/>
<path d="M346.842 342.982C346.842 344.029 347.257 345.033 347.998 345.774C348.738 346.514 349.742 346.93 350.789 346.93C351.836 346.93 352.84 346.514 353.581 345.774C354.321 345.033 354.737 344.029 354.737 342.982C354.737 341.935 354.321 340.931 353.581 340.191C352.84 339.45 351.836 339.034 350.789 339.034C349.742 339.034 348.738 339.45 347.998 340.191C347.257 340.931 346.842 341.935 346.842 342.982Z" fill="#3B8F49"/>
</svg>
